<svg xmlns="http://www.w3.org/2000/svg" version="1.1" xmlns:xlink="http://www.w3.org/1999/xlink" xmlns:svgjs="http://svgjs.dev/svgjs" width="2000" height="340" viewBox="0 0 2000 340"><g transform="matrix(1,0,0,1,1.0780904116382999,0.1589925000000676)"><svg viewBox="0 0 376 64" data-background-color="#ffffff" preserveAspectRatio="xMidYMid meet" height="340" width="2000" xmlns="http://www.w3.org/2000/svg" xmlns:xlink="http://www.w3.org/1999/xlink"><g id="tight-bounds" transform="matrix(1,0,0,1,-0.2026809973880006,-0.02992800000001239)"><svg viewBox="0 0 376.405361994776 64.05985600000001" height="64.05985600000001" width="376.405361994776"><g><svg viewBox="0 0 376.405361994776 64.05985600000001" height="64.05985600000001" width="376.405361994776"><g><svg viewBox="0 0 376.405361994776 64.05985600000001" height="64.05985600000001" width="376.405361994776"><g id="textblocktransform"><svg viewBox="0 0 376.405361994776 64.05985600000001" height="64.05985600000001" width="376.405361994776" id="textblock"><g><svg viewBox="0 0 376.405361994776 64.05985600000001" height="64.05985600000001" width="376.405361994776"><g><svg><g></g><g></g></svg></g><g><svg><g></g><g><svg></svg></g></svg></g><g id="text-0"><svg viewBox="0 0 376.405361994776 64.05985600000001" height="64.05985600000001" width="376.405361994776"><g><svg xmlns="http://www.w3.org/2000/svg" xmlns:xlink="http://www.w3.org/1999/xlink" version="1.1" x="0" y="0" viewBox="3.0012207000000024 3.001797494834268 63.99804689999999 63.99643250516572" style="enable-background:new 0 0 70 70;" xml:space="preserve" height="64.05985600000001" width="64.061471994776" class="icon-cg-0" data-fill-palette-color="accent" id="cg-0"></svg></g><g transform="matrix(1,0,0,1,79.494271994776,0)"><svg width="296.91109" viewBox="1.75 -39.65 187.23 40.4" height="64.05985600000001" data-palette-color="#eceaea"><path d="M15.25-35.25Q18.1-35.25 20.35-34.23 22.6-33.2 24.6-31.25L24.6-31.25 21.4-27.95Q19.85-29.3 18.5-29.88 17.15-30.45 15.45-30.45L15.45-30.45Q12.15-30.45 10.28-27.5 8.4-24.55 8.4-17.3L8.4-17.3Q8.4-12.2 9.08-9.33 9.75-6.45 11.08-5.3 12.4-4.15 14.55-4.15L14.55-4.15Q16.8-4.15 18.65-5.4L18.65-5.4 18.65-14.75 14.75-14.75 14.1-19.5 24.7-19.5 24.7-2.6Q22.55-1.05 19.93-0.18 17.3 0.7 14.6 0.7L14.6 0.7Q8.15 0.7 4.95-3.68 1.75-8.05 1.75-17.3L1.75-17.3Q1.75-23.3 3.53-27.33 5.3-31.35 8.35-33.3 11.4-35.25 15.25-35.25L15.25-35.25ZM48.6-13.85Q48.6-13.4 48.45-11.3L48.45-11.3 34.8-11.3Q35-7.2 36.22-5.58 37.45-3.95 39.7-3.95L39.7-3.95Q41.25-3.95 42.5-4.48 43.75-5 45.2-6.15L45.2-6.15 47.75-2.65Q44.25 0.75 39.35 0.75L39.35 0.75Q34.15 0.75 31.37-2.85 28.6-6.45 28.6-13L28.6-13Q28.6-19.55 31.25-23.35 33.9-27.15 38.75-27.15L38.75-27.15Q43.4-27.15 46-23.78 48.6-20.4 48.6-13.85L48.6-13.85ZM42.6-15.3L42.6-15.65Q42.6-19.4 41.7-21.13 40.8-22.85 38.8-22.85L38.8-22.85Q36.95-22.85 35.97-21.18 35-19.5 34.8-15.3L34.8-15.3 42.6-15.3ZM65.25-27.15Q68.09-27.15 69.75-25.1 71.4-23.05 71.4-19.6L71.4-19.6 71.4 0 65.25 0 65.25-18.9Q65.25-20.8 64.72-21.63 64.2-22.45 63.2-22.45L63.2-22.45Q61.09-22.45 59.05-18.5L59.05-18.5 59.05 0 52.9 0 52.9-26.45 58.25-26.45 58.7-23Q60.05-25.1 61.57-26.13 63.09-27.15 65.25-27.15L65.25-27.15ZM76.94-26.45L83.09-26.45 83.09 0 76.94 0 76.94-26.45ZM79.99-39.65Q81.64-39.65 82.67-38.6 83.69-37.55 83.69-35.9L83.69-35.9Q83.69-34.3 82.67-33.25 81.64-32.2 79.99-32.2L79.99-32.2Q78.34-32.2 77.32-33.25 76.29-34.3 76.29-35.9L76.29-35.9Q76.29-37.55 77.32-38.6 78.34-39.65 79.99-39.65L79.99-39.65ZM96.14-27.15Q100.84-27.15 104.09-24.05L104.09-24.05 101.74-20.7Q100.34-21.7 99.09-22.2 97.84-22.7 96.54-22.7L96.54-22.7Q95.09-22.7 94.27-21.93 93.44-21.15 93.44-19.8L93.44-19.8Q93.44-18.45 94.36-17.63 95.29-16.8 98.09-15.7L98.09-15.7Q101.54-14.35 103.19-12.5 104.84-10.65 104.84-7.55L104.84-7.55Q104.84-3.7 102.14-1.48 99.44 0.75 95.29 0.75L95.29 0.75Q92.59 0.75 90.31-0.23 88.04-1.2 86.34-2.95L86.34-2.95 89.34-6.25Q92.14-3.8 95.04-3.8L95.04-3.8Q96.69-3.8 97.64-4.67 98.59-5.55 98.59-7.1L98.59-7.1Q98.59-8.25 98.19-8.97 97.79-9.7 96.79-10.33 95.79-10.95 93.79-11.7L93.79-11.7Q90.34-13.05 88.86-14.85 87.39-16.65 87.39-19.45L87.39-19.45Q87.39-22.8 89.77-24.98 92.14-27.15 96.14-27.15L96.14-27.15ZM108.69-26.45L114.84-26.45 114.84 0 108.69 0 108.69-26.45ZM111.74-39.65Q113.39-39.65 114.41-38.6 115.44-37.55 115.44-35.9L115.44-35.9Q115.44-34.3 114.41-33.25 113.39-32.2 111.74-32.2L111.74-32.2Q110.09-32.2 109.06-33.25 108.04-34.3 108.04-35.9L108.04-35.9Q108.04-37.55 109.06-38.6 110.09-39.65 111.74-39.65L111.74-39.65ZM127.89-27.15Q132.59-27.15 135.84-24.05L135.84-24.05 133.49-20.7Q132.09-21.7 130.84-22.2 129.59-22.7 128.28-22.7L128.28-22.7Q126.84-22.7 126.01-21.93 125.19-21.15 125.19-19.8L125.19-19.8Q125.19-18.45 126.11-17.63 127.03-16.8 129.84-15.7L129.84-15.7Q133.28-14.35 134.94-12.5 136.59-10.65 136.59-7.55L136.59-7.55Q136.59-3.7 133.88-1.48 131.19 0.75 127.03 0.75L127.03 0.75Q124.34 0.75 122.06-0.23 119.78-1.2 118.09-2.95L118.09-2.95 121.09-6.25Q123.89-3.8 126.78-3.8L126.78-3.8Q128.44-3.8 129.38-4.67 130.34-5.55 130.34-7.1L130.34-7.1Q130.34-8.25 129.94-8.97 129.53-9.7 128.53-10.33 127.53-10.95 125.53-11.7L125.53-11.7Q122.09-13.05 120.61-14.85 119.14-16.65 119.14-19.45L119.14-19.45Q119.14-22.8 121.51-24.98 123.89-27.15 127.89-27.15L127.89-27.15ZM152.63-13.2L139.73-13.2 139.73-18.1 152.63-18.1 152.63-13.2ZM179.73 0L173.28 0 171.58-8.1 162.68-8.1 161.03 0 154.68 0 163.38-34.55 171.08-34.55 179.73 0ZM167.13-29.7L163.68-12.9 170.63-12.9 167.13-29.7ZM182.63-34.55L188.98-34.55 188.98 0 182.63 0 182.63-34.55Z" opacity="1" transform="matrix(1,0,0,1,0,0)" fill="#eceaea" class="wordmark-text-0" data-fill-palette-color="primary"></path></svg></g></svg></g></svg></g></svg></g></svg></g></svg></g><defs></defs><mask id="a560153a-bee1-4006-ba57-e2bbf1e8486a"><g id="SvgjsG3592"><svg viewBox="0 0 376.405361994776 64.05985600000001" height="64.05985600000001" width="376.405361994776"><g><svg viewBox="0 0 376.405361994776 64.05985600000001" height="64.05985600000001" width="376.405361994776"><g><svg viewBox="0 0 376.405361994776 64.05985600000001" height="64.05985600000001" width="376.405361994776"><g id="SvgjsG3591"><svg viewBox="0 0 376.405361994776 64.05985600000001" height="64.05985600000001" width="376.405361994776" id="SvgjsSvg3590"><g><svg viewBox="0 0 376.405361994776 64.05985600000001" height="64.05985600000001" width="376.405361994776"><g><svg><g></g><g></g></svg></g><g><svg><g></g><g><svg></svg></g></svg></g><g id="SvgjsG3589"><svg viewBox="0 0 376.405361994776 64.05985600000001" height="64.05985600000001" width="376.405361994776"><g><svg xmlns="http://www.w3.org/2000/svg" xmlns:xlink="http://www.w3.org/1999/xlink" version="1.1" x="0" y="0" viewBox="3.0012207000000024 3.001797494834268 63.99804689999999 63.99643250516572" style="enable-background:new 0 0 70 70;" xml:space="preserve" height="64.05985600000001" width="64.061471994776" class="icon-cg-0" data-fill-palette-color="accent" id="SvgjsSvg3588"><path d="M9.218 49.971c-0.388 1.576-0.888 4.934 0.855 7.84 1.413 2.355 3.948 3.856 7.541 4.465 0.605 1.059 1.949 2.671 3.711 3.669 1.003 0.566 2.34 1.054 3.973 1.053 1.508 0 3.269-0.416 5.251-1.569 1.512-0.879 2.451-2.53 2.451-4.307v-5.12h26.141c0.447 1.72 1.999 3 3.858 2.999 2.206 0 4-1.794 4-3.999s-1.794-4-4-4c-1.859 0-3.411 1.28-3.858 3H33v-15h13.002l3.72 3.719c-0.452 0.648-0.722 1.432-0.722 2.281 0 2.206 1.794 4 4 4s4-1.794 4-4-1.794-4-4-4c-0.63 0-1.219 0.16-1.749 0.42l-3.835-3.834c-0.378-0.378-0.88-0.586-1.414-0.586H33v-9h9.142c0.447 1.72 1.999 3 3.858 3 2.206 0 4-1.794 4-4s-1.794-4-4-4c-1.859 0-3.411 1.28-3.858 3h-9.142v-14h14v5c0 1.103 0.897 2 2 2h7.142c0.447 1.72 1.999 3 3.857 3 2.206 0 4-1.794 4-4s-1.794-4-4-4c-1.858 0-3.41 1.28-3.857 3h-7.142v-5c0-1.103-0.897-2-2-2h-14V7.426c0-1.392-0.467-2.604-1.314-3.414-0.74-0.708-1.717-1.06-2.819-1.004-4.385 0.228-12.063 1.657-15.033 8.588-0.936 0.181-2.792 0.679-4.714 1.987-2.459 1.672-5.507 5.034-6.066 11.558-0.284 3.354 0.586 6.514 2.56 9.412-1.687 1.826-2.612 4.062-2.613 6.387C3.001 44.669 5.414 48.132 9.218 49.971zM62.999 53.002c1.103 0 2 0.897 2 2 0 1.103-0.897 2-2 1.999s-2-0.897-2-1.999C60.999 53.899 61.897 53.002 62.999 53.002zM53 43.002c1.103 0 2 0.897 2 2s-0.897 2-2 2-2-0.897-2-2S51.898 43.002 53 43.002zM46 25.002c1.103 0 2 0.897 2 2s-0.897 2-2 2-2-0.897-2-2S44.898 25.002 46 25.002zM59.999 16.002c1.103 0 2 0.897 2 2s-0.897 2-2 2-1.999-0.897-1.999-2S58.897 16.002 59.999 16.002zM23.274 32.916c-2.213-1.539-5.01-2.386-7.877-2.386-3.078 0-6.036 0.963-8.291 2.668-1.599-2.447-2.297-5.095-2.06-7.887 0.933-10.849 9.244-11.785 9.594-11.819 0.382-0.035 0.711-0.285 0.846-0.643 2.391-6.34 9.476-7.636 13.479-7.844 0.564-0.029 0.999 0.127 1.339 0.453 0.442 0.422 0.696 1.14 0.696 1.968v53.696c0 1.068-0.559 2.056-1.457 2.579-2.172 1.262-4.202 1.607-6.037 1.026-2.75-0.872-4.183-3.472-4.309-3.714-0.126-0.333-0.425-0.585-0.795-0.638-3.229-0.46-5.451-1.665-6.607-3.582-1.834-3.042-0.448-6.999-0.435-7.036 0.036-0.099 0.041-0.2 0.045-0.3 0.001-0.024 0.011-0.048 0.011-0.072-0.003-0.085-0.029-0.163-0.052-0.243-0.013-0.045-0.015-0.092-0.034-0.135-0.023-0.051-0.063-0.092-0.095-0.14-0.041-0.062-0.075-0.126-0.129-0.178-0.025-0.023-0.059-0.035-0.086-0.056-0.072-0.056-0.142-0.116-0.231-0.151-3.57-1.432-5.788-4.321-5.788-7.542 0-2.033 0.919-4.002 2.588-5.545 1.966-1.821 4.813-2.865 7.808-2.865 2.463 0 4.854 0.72 6.734 2.028 0.455 0.315 1.076 0.204 1.393-0.25C23.839 33.855 23.727 33.232 23.274 32.916z" fill="white"></path><path d="M14.047 41.714c-0.552-0.056-1.041 0.346-1.096 0.895-0.055 0.549 0.346 1.04 0.895 1.095 0.31 0.031 7.576 0.87 7.335 10.208-0.014 0.552 0.422 1.011 0.975 1.025 0.009 0 0.018 0 0.025 0.001 0.541 0 0.985-0.431 1-0.974C23.469 42.792 14.141 41.724 14.047 41.714z" fill="white"></path><path d="M25.036 15.838c-0.551-0.075-1.049 0.315-1.12 0.862-0.25 1.913-0.974 3.309-2.153 4.151-1.984 1.417-4.688 0.889-4.726 0.882-0.538-0.113-1.068 0.233-1.181 0.773-0.114 0.541 0.232 1.071 0.772 1.184 0.062 0.013 0.718 0.146 1.661 0.146 1.271 0 3.063-0.242 4.619-1.345 1.659-1.177 2.666-3.038 2.991-5.532C25.971 16.411 25.584 15.909 25.036 15.838z" fill="white"></path></svg></g><g transform="matrix(1,0,0,1,79.494271994776,0)"><svg width="296.91109" viewBox="1.75 -39.65 187.23 40.4" height="64.05985600000001" data-palette-color="#eceaea"><path d="M15.25-35.25Q18.1-35.25 20.35-34.23 22.6-33.2 24.6-31.25L24.6-31.25 21.4-27.95Q19.85-29.3 18.5-29.88 17.15-30.45 15.45-30.45L15.45-30.45Q12.15-30.45 10.28-27.5 8.4-24.55 8.4-17.3L8.4-17.3Q8.4-12.2 9.08-9.33 9.75-6.45 11.08-5.3 12.4-4.15 14.55-4.15L14.55-4.15Q16.8-4.15 18.65-5.4L18.65-5.4 18.65-14.75 14.75-14.75 14.1-19.5 24.7-19.5 24.7-2.6Q22.55-1.05 19.93-0.18 17.3 0.7 14.6 0.7L14.6 0.7Q8.15 0.7 4.95-3.68 1.75-8.05 1.75-17.3L1.75-17.3Q1.75-23.3 3.53-27.33 5.3-31.35 8.35-33.3 11.4-35.25 15.25-35.25L15.25-35.25ZM48.6-13.85Q48.6-13.4 48.45-11.3L48.45-11.3 34.8-11.3Q35-7.2 36.22-5.58 37.45-3.95 39.7-3.95L39.7-3.95Q41.25-3.95 42.5-4.48 43.75-5 45.2-6.15L45.2-6.15 47.75-2.65Q44.25 0.75 39.35 0.75L39.35 0.75Q34.15 0.75 31.37-2.85 28.6-6.45 28.6-13L28.6-13Q28.6-19.55 31.25-23.35 33.9-27.15 38.75-27.15L38.75-27.15Q43.4-27.15 46-23.78 48.6-20.4 48.6-13.85L48.6-13.85ZM42.6-15.3L42.6-15.65Q42.6-19.4 41.7-21.13 40.8-22.85 38.8-22.85L38.8-22.85Q36.95-22.85 35.97-21.18 35-19.5 34.8-15.3L34.8-15.3 42.6-15.3ZM65.25-27.15Q68.09-27.15 69.75-25.1 71.4-23.05 71.4-19.6L71.4-19.6 71.4 0 65.25 0 65.25-18.9Q65.25-20.8 64.72-21.63 64.2-22.45 63.2-22.45L63.2-22.45Q61.09-22.45 59.05-18.5L59.05-18.5 59.05 0 52.9 0 52.9-26.45 58.25-26.45 58.7-23Q60.05-25.1 61.57-26.13 63.09-27.15 65.25-27.15L65.25-27.15ZM76.94-26.45L83.09-26.45 83.09 0 76.94 0 76.94-26.45ZM79.99-39.65Q81.64-39.65 82.67-38.6 83.69-37.55 83.69-35.9L83.69-35.9Q83.69-34.3 82.67-33.25 81.64-32.2 79.99-32.2L79.99-32.2Q78.34-32.2 77.32-33.25 76.29-34.3 76.29-35.9L76.29-35.9Q76.29-37.55 77.32-38.6 78.34-39.65 79.99-39.65L79.99-39.65ZM96.14-27.15Q100.84-27.15 104.09-24.05L104.09-24.05 101.74-20.7Q100.34-21.7 99.09-22.2 97.84-22.7 96.54-22.7L96.54-22.7Q95.09-22.7 94.27-21.93 93.44-21.15 93.44-19.8L93.44-19.8Q93.44-18.45 94.36-17.63 95.29-16.8 98.09-15.7L98.09-15.7Q101.54-14.35 103.19-12.5 104.84-10.65 104.84-7.55L104.84-7.55Q104.84-3.7 102.14-1.48 99.44 0.75 95.29 0.75L95.29 0.75Q92.59 0.75 90.31-0.23 88.04-1.2 86.34-2.95L86.34-2.95 89.34-6.25Q92.14-3.8 95.04-3.8L95.04-3.8Q96.69-3.8 97.64-4.67 98.59-5.55 98.59-7.1L98.59-7.1Q98.59-8.25 98.19-8.97 97.79-9.7 96.79-10.33 95.79-10.95 93.79-11.7L93.79-11.7Q90.34-13.05 88.86-14.85 87.39-16.65 87.39-19.45L87.39-19.45Q87.39-22.8 89.77-24.98 92.14-27.15 96.14-27.15L96.14-27.15ZM108.69-26.45L114.84-26.45 114.84 0 108.69 0 108.69-26.45ZM111.74-39.65Q113.39-39.65 114.41-38.6 115.44-37.55 115.44-35.9L115.44-35.9Q115.44-34.3 114.41-33.25 113.39-32.2 111.74-32.2L111.74-32.2Q110.09-32.2 109.06-33.25 108.04-34.3 108.04-35.9L108.04-35.9Q108.04-37.55 109.06-38.6 110.09-39.65 111.74-39.65L111.74-39.65ZM127.89-27.15Q132.59-27.15 135.84-24.05L135.84-24.05 133.49-20.7Q132.09-21.7 130.84-22.2 129.59-22.7 128.28-22.7L128.28-22.7Q126.84-22.7 126.01-21.93 125.19-21.15 125.19-19.8L125.19-19.8Q125.19-18.45 126.11-17.63 127.03-16.8 129.84-15.7L129.84-15.7Q133.28-14.35 134.94-12.5 136.59-10.65 136.59-7.55L136.59-7.55Q136.59-3.7 133.88-1.48 131.19 0.75 127.03 0.75L127.03 0.75Q124.34 0.75 122.06-0.23 119.78-1.2 118.09-2.95L118.09-2.95 121.09-6.25Q123.89-3.8 126.78-3.8L126.78-3.8Q128.44-3.8 129.38-4.67 130.34-5.55 130.34-7.1L130.34-7.1Q130.34-8.25 129.94-8.97 129.53-9.7 128.53-10.33 127.53-10.95 125.53-11.7L125.53-11.7Q122.09-13.05 120.61-14.85 119.14-16.65 119.14-19.45L119.14-19.45Q119.14-22.8 121.51-24.98 123.89-27.15 127.89-27.15L127.89-27.15ZM152.63-13.2L139.73-13.2 139.73-18.1 152.63-18.1 152.63-13.2ZM179.73 0L173.28 0 171.58-8.1 162.68-8.1 161.03 0 154.68 0 163.38-34.55 171.08-34.55 179.73 0ZM167.13-29.7L163.68-12.9 170.63-12.9 167.13-29.7ZM182.63-34.55L188.98-34.55 188.98 0 182.63 0 182.63-34.55Z" opacity="1" transform="matrix(1,0,0,1,0,0)" fill="black" class="wordmark-text-0"></path></svg></g></svg></g></svg></g></svg></g></svg></g></svg></g><defs><mask></mask></defs></svg><rect width="376.405361994776" height="64.05985600000001" fill="black" stroke="none" visibility="hidden"></rect></g></mask><linearGradient x1="0" x2="1" y1="0.548" y2="0.55" id="f2353424-59c0-4dbb-a537-f947656be041"><stop stop-color="#ff6cab" offset="0"></stop><stop stop-color="#7366ff" offset="1"></stop></linearGradient><rect width="376.405361994776" height="64.05985600000001" fill="url(#f2353424-59c0-4dbb-a537-f947656be041)" mask="url(#a560153a-bee1-4006-ba57-e2bbf1e8486a)" data-fill-palette-color="accent"></rect></svg><rect width="376.405361994776" height="64.05985600000001" fill="none" stroke="none" visibility="hidden"></rect></g></svg></g></svg>