<svg xmlns="http://www.w3.org/2000/svg" version="1.1" xmlns:xlink="http://www.w3.org/1999/xlink" xmlns:svgjs="http://svgjs.dev/svgjs" width="128" height="128" viewBox="0 0 128 128"><g transform="matrix(0.8046875,0,0,0.8046875,12.760752631578946,12.75944693092535)"><svg viewBox="0 0 95 95" data-background-color="#ffffff" preserveAspectRatio="xMidYMid meet" height="128" width="128" xmlns="http://www.w3.org/2000/svg" xmlns:xlink="http://www.w3.org/1999/xlink"><g id="tight-bounds" transform="matrix(1,0,0,1,-0.24049999999999727,-0.2392957129894029)"><svg viewBox="0 0 95.481 95.47859142597879" height="95.47859142597879" width="95.481"><g><svg viewBox="0 0 95.481 95.47859142597879" height="95.47859142597879" width="95.481"><g><svg viewBox="0 0 95.481 95.47859142597879" height="95.47859142597879" width="95.481"><g id="textblocktransform"><svg viewBox="0 0 95.481 95.47859142597879" height="95.47859142597879" width="95.481" id="textblock"><g><svg viewBox="0 0 95.481 95.47859142597879" height="95.47859142597879" width="95.481"><g><svg viewBox="0 0 95.481 95.47859142597879" height="95.47859142597879" width="95.481"><g><svg xmlns="http://www.w3.org/2000/svg" xmlns:xlink="http://www.w3.org/1999/xlink" version="1.1" x="0" y="0" viewBox="3.0012207000000024 3.001797494834268 63.99804689999999 63.99643250516572" style="enable-background:new 0 0 70 70;" xml:space="preserve" height="95.47859142597879" width="95.481" class="icon-icon-0" data-fill-palette-color="accent" id="icon-0"></svg></g></svg></g></svg></g></svg></g></svg></g></svg></g><defs></defs><mask id="4b396d68-0a55-4048-a0c2-7a60675c3983"><g id="SvgjsG1576"><svg viewBox="0 0 95.481 95.47859142597879" height="95.47859142597879" width="95.481"><g><svg viewBox="0 0 95.481 95.47859142597879" height="95.47859142597879" width="95.481"><g><svg viewBox="0 0 95.481 95.47859142597879" height="95.47859142597879" width="95.481"><g id="SvgjsG1575"><svg viewBox="0 0 95.481 95.47859142597879" height="95.47859142597879" width="95.481" id="SvgjsSvg1574"><g><svg viewBox="0 0 95.481 95.47859142597879" height="95.47859142597879" width="95.481"><g><svg viewBox="0 0 95.481 95.47859142597879" height="95.47859142597879" width="95.481"><g><svg xmlns="http://www.w3.org/2000/svg" xmlns:xlink="http://www.w3.org/1999/xlink" version="1.1" x="0" y="0" viewBox="3.0012207000000024 3.001797494834268 63.99804689999999 63.99643250516572" style="enable-background:new 0 0 70 70;" xml:space="preserve" height="95.47859142597879" width="95.481" class="icon-icon-0" data-fill-palette-color="accent" id="SvgjsSvg1573"><path d="M9.218 49.971c-0.388 1.576-0.888 4.934 0.855 7.84 1.413 2.355 3.948 3.856 7.541 4.465 0.605 1.059 1.949 2.671 3.711 3.669 1.003 0.566 2.34 1.054 3.973 1.053 1.508 0 3.269-0.416 5.251-1.569 1.512-0.879 2.451-2.53 2.451-4.307v-5.12h26.141c0.447 1.72 1.999 3 3.858 2.999 2.206 0 4-1.794 4-3.999s-1.794-4-4-4c-1.859 0-3.411 1.28-3.858 3H33v-15h13.002l3.72 3.719c-0.452 0.648-0.722 1.432-0.722 2.281 0 2.206 1.794 4 4 4s4-1.794 4-4-1.794-4-4-4c-0.63 0-1.219 0.16-1.749 0.42l-3.835-3.834c-0.378-0.378-0.88-0.586-1.414-0.586H33v-9h9.142c0.447 1.72 1.999 3 3.858 3 2.206 0 4-1.794 4-4s-1.794-4-4-4c-1.859 0-3.411 1.28-3.858 3h-9.142v-14h14v5c0 1.103 0.897 2 2 2h7.142c0.447 1.72 1.999 3 3.857 3 2.206 0 4-1.794 4-4s-1.794-4-4-4c-1.858 0-3.41 1.28-3.857 3h-7.142v-5c0-1.103-0.897-2-2-2h-14V7.426c0-1.392-0.467-2.604-1.314-3.414-0.74-0.708-1.717-1.06-2.819-1.004-4.385 0.228-12.063 1.657-15.033 8.588-0.936 0.181-2.792 0.679-4.714 1.987-2.459 1.672-5.507 5.034-6.066 11.558-0.284 3.354 0.586 6.514 2.56 9.412-1.687 1.826-2.612 4.062-2.613 6.387C3.001 44.669 5.414 48.132 9.218 49.971zM62.999 53.002c1.103 0 2 0.897 2 2 0 1.103-0.897 2-2 1.999s-2-0.897-2-1.999C60.999 53.899 61.897 53.002 62.999 53.002zM53 43.002c1.103 0 2 0.897 2 2s-0.897 2-2 2-2-0.897-2-2S51.898 43.002 53 43.002zM46 25.002c1.103 0 2 0.897 2 2s-0.897 2-2 2-2-0.897-2-2S44.898 25.002 46 25.002zM59.999 16.002c1.103 0 2 0.897 2 2s-0.897 2-2 2-1.999-0.897-1.999-2S58.897 16.002 59.999 16.002zM23.274 32.916c-2.213-1.539-5.01-2.386-7.877-2.386-3.078 0-6.036 0.963-8.291 2.668-1.599-2.447-2.297-5.095-2.06-7.887 0.933-10.849 9.244-11.785 9.594-11.819 0.382-0.035 0.711-0.285 0.846-0.643 2.391-6.34 9.476-7.636 13.479-7.844 0.564-0.029 0.999 0.127 1.339 0.453 0.442 0.422 0.696 1.14 0.696 1.968v53.696c0 1.068-0.559 2.056-1.457 2.579-2.172 1.262-4.202 1.607-6.037 1.026-2.75-0.872-4.183-3.472-4.309-3.714-0.126-0.333-0.425-0.585-0.795-0.638-3.229-0.46-5.451-1.665-6.607-3.582-1.834-3.042-0.448-6.999-0.435-7.036 0.036-0.099 0.041-0.2 0.045-0.3 0.001-0.024 0.011-0.048 0.011-0.072-0.003-0.085-0.029-0.163-0.052-0.243-0.013-0.045-0.015-0.092-0.034-0.135-0.023-0.051-0.063-0.092-0.095-0.14-0.041-0.062-0.075-0.126-0.129-0.178-0.025-0.023-0.059-0.035-0.086-0.056-0.072-0.056-0.142-0.116-0.231-0.151-3.57-1.432-5.788-4.321-5.788-7.542 0-2.033 0.919-4.002 2.588-5.545 1.966-1.821 4.813-2.865 7.808-2.865 2.463 0 4.854 0.72 6.734 2.028 0.455 0.315 1.076 0.204 1.393-0.25C23.839 33.855 23.727 33.232 23.274 32.916z" fill="white"></path><path d="M14.047 41.714c-0.552-0.056-1.041 0.346-1.096 0.895-0.055 0.549 0.346 1.04 0.895 1.095 0.31 0.031 7.576 0.87 7.335 10.208-0.014 0.552 0.422 1.011 0.975 1.025 0.009 0 0.018 0 0.025 0.001 0.541 0 0.985-0.431 1-0.974C23.469 42.792 14.141 41.724 14.047 41.714z" fill="white"></path><path d="M25.036 15.838c-0.551-0.075-1.049 0.315-1.12 0.862-0.25 1.913-0.974 3.309-2.153 4.151-1.984 1.417-4.688 0.889-4.726 0.882-0.538-0.113-1.068 0.233-1.181 0.773-0.114 0.541 0.232 1.071 0.772 1.184 0.062 0.013 0.718 0.146 1.661 0.146 1.271 0 3.063-0.242 4.619-1.345 1.659-1.177 2.666-3.038 2.991-5.532C25.971 16.411 25.584 15.909 25.036 15.838z" fill="white"></path></svg></g></svg></g></svg></g></svg></g></svg></g></svg></g><defs><mask></mask></defs></svg><rect width="95.481" height="95.47859142597879" fill="black" stroke="none" visibility="hidden"></rect></g></mask><linearGradient x1="0" x2="1" y1="0.548" y2="0.55" id="cb074c1c-7b84-4125-a305-3a119e4dec33"><stop stop-color="#ff6cab" offset="0"></stop><stop stop-color="#7366ff" offset="1"></stop></linearGradient><rect width="95.481" height="95.47859142597879" fill="url(#cb074c1c-7b84-4125-a305-3a119e4dec33)" mask="url(#4b396d68-0a55-4048-a0c2-7a60675c3983)" data-fill-palette-color="accent"></rect></svg><rect width="95.481" height="95.47859142597879" fill="none" stroke="none" visibility="hidden"></rect></g></svg></g></svg>