<?xml version="1.0" standalone="no"?>
<!DOCTYPE svg PUBLIC "-//W3C//DTD SVG 20010904//EN"
 "http://www.w3.org/TR/2001/REC-SVG-20010904/DTD/svg10.dtd">
<svg version="1.0" xmlns="http://www.w3.org/2000/svg"
 width="860.000000pt" height="901.000000pt" viewBox="0 0 860.000000 901.000000"
 preserveAspectRatio="xMidYMid meet">

<g transform="translate(0.000000,901.000000) scale(0.100000,-0.100000)"
fill="#000000" stroke="none">
<path d="M3484 8420 c-44 -18 -72 -108 -43 -137 9 -9 -15 -39 -95 -121 l-106
-109 0 -179 0 -179 -183 -181 c-101 -100 -194 -187 -206 -193 -15 -8 -21 -20
-19 -34 4 -30 42 -30 46 -1 2 12 87 105 193 210 l189 189 0 181 0 180 105 104
c81 79 108 101 117 92 19 -19 83 -14 111 8 15 12 29 36 33 56 16 84 -61 147
-142 114z"/>
<path d="M2777 8320 c-38 -30 -51 -78 -32 -123 10 -26 15 -71 15 -154 l0 -118
-92 -87 c-51 -49 -101 -88 -111 -88 -49 0 -81 -34 -102 -109 -4 -13 -112 -130
-241 -260 l-234 -236 0 -386 0 -385 -93 -90 c-50 -49 -101 -94 -111 -100 -13
-7 -17 -16 -13 -28 10 -24 51 -17 55 10 2 11 43 60 92 109 l90 90 0 107 c0 59
4 109 9 112 15 9 20 -17 27 -137 l7 -114 -54 -52 c-30 -29 -64 -57 -77 -62
-31 -12 -25 -44 8 -44 18 0 26 6 28 21 2 11 25 43 52 69 l50 49 0 96 c0 116 5
139 30 133 52 -14 114 63 91 114 -11 25 -6 32 161 199 l172 174 201 0 200 -1
123 -119 c67 -66 127 -131 132 -145 7 -19 16 -26 32 -23 32 4 35 36 5 47 -13
5 -81 66 -151 135 -120 118 -130 126 -167 126 -45 0 -46 3 -18 31 17 17 20 30
16 67 l-5 45 234 234 234 234 0 182 0 182 40 38 c22 20 48 37 59 37 21 0 33
22 25 45 -10 25 -44 18 -55 -12 -5 -14 -28 -44 -49 -67 l-40 -41 0 -175 0
-175 -232 -232 -232 -232 -40 5 c-58 8 -96 -22 -96 -77 0 -25 7 -46 19 -58 11
-11 17 -22 13 -25 -3 -3 -62 -6 -131 -6 l-125 0 -177 -176 c-164 -163 -179
-175 -199 -164 -12 6 -30 10 -40 7 -27 -7 -30 16 -30 208 l0 170 224 224 224
224 31 -13 c44 -18 95 -5 125 31 34 40 41 70 26 115 l-12 36 86 87 86 86 0
138 0 138 30 11 c37 12 50 35 50 83 0 72 -85 110 -143 65z m41 -291 l3 -135
-85 -82 c-85 -84 -91 -88 -114 -73 -9 5 11 32 72 97 l86 89 0 123 c0 112 2
123 18 120 15 -3 17 -19 20 -139z m-344 -456 c5 -12 -50 -73 -213 -237 l-220
-221 -4 -205 c-2 -113 -8 -213 -12 -222 -19 -45 -25 11 -25 226 l0 232 224
222 c124 122 229 222 234 222 6 0 13 -7 16 -17z"/>
<path d="M3942 8318 c-11 -13 -24 -36 -27 -51 -6 -24 -2 -33 34 -67 37 -35 41
-44 41 -87 0 -47 -2 -51 -72 -119 -40 -39 -81 -74 -90 -77 -21 -8 -24 -43 -4
-50 15 -6 36 10 36 28 0 6 34 44 75 85 l75 74 0 63 c0 46 4 63 13 63 24 0 57
45 57 77 0 17 -9 42 -21 57 -27 35 -86 36 -117 4z"/>
<path d="M3683 8308 c-6 -7 -12 -19 -14 -26 -2 -7 -64 -72 -136 -145 l-132
-132 -1 -180 -1 -180 -193 -190 c-106 -104 -200 -196 -210 -204 -16 -12 -16
-15 -3 -29 19 -18 47 -9 47 15 0 10 85 103 190 208 l190 190 0 180 0 180 133
132 c72 72 141 133 152 135 14 2 20 11 20 28 0 28 -26 39 -42 18z"/>
<path d="M3101 8268 c-5 -13 -21 -34 -35 -47 -23 -22 -26 -32 -26 -96 l0 -71
-53 -52 c-29 -29 -58 -52 -64 -52 -18 0 -34 -26 -27 -44 9 -24 48 -16 52 10 2
11 27 45 57 74 l55 54 0 71 c0 61 3 74 23 92 12 12 31 23 42 25 14 2 20 11 20
28 0 33 -32 39 -44 8z"/>
<path d="M4275 8270 c-11 -4 -29 -17 -39 -29 -11 -11 -27 -21 -36 -21 -10 0
-23 -6 -30 -14 -6 -8 -21 -16 -33 -18 -23 -3 -23 -3 -11 -101 3 -26 3 -58 0
-70 -6 -25 -297 -320 -321 -325 -18 -4 -20 -48 -2 -54 20 -8 37 2 37 22 0 10
68 87 155 174 l154 156 3 77 c2 50 7 78 16 81 9 3 12 -22 12 -100 l0 -104
-137 -133 c-76 -73 -146 -140 -157 -148 -16 -13 -16 -17 -4 -29 18 -18 48 -8
48 15 0 9 61 77 135 151 l134 134 3 115 c2 80 7 116 16 119 9 3 12 -28 12
-135 l0 -138 -172 -172 c-95 -94 -183 -174 -195 -178 -13 -3 -26 -17 -29 -30
-4 -16 -16 -26 -34 -30 -35 -8 -58 -33 -66 -73 -6 -27 -1 -37 35 -73 l41 -42
0 -541 0 -541 246 -245 c135 -135 262 -270 282 -300 42 -66 168 -192 214 -215
18 -10 70 -54 116 -98 l82 -82 0 -886 c0 -873 0 -886 -20 -904 -20 -18 -20
-17 -20 876 l0 894 -470 470 -470 470 0 423 c0 317 3 427 12 442 10 16 10 23
-4 36 -10 10 -23 14 -33 10 -14 -5 -16 -13 -10 -39 4 -17 7 -221 6 -452 l-2
-420 476 -475 c470 -470 475 -475 475 -515 -1 -40 -1 -40 -15 -14 -7 14 -241
252 -519 530 l-506 504 0 617 c0 432 3 618 11 618 6 0 9 10 7 23 -2 13 -10 22
-21 22 -18 0 -18 -27 -17 -645 l1 -645 209 -210 c200 -200 209 -211 189 -223
-20 -13 -34 -1 -230 194 l-209 208 0 481 c0 362 3 484 12 493 17 17 -14 47
-37 38 -13 -5 -16 -13 -10 -34 4 -15 7 -241 7 -502 l-1 -475 215 -215 c209
-211 214 -217 208 -249 l-7 -33 -181 181 -181 180 -60 3 -60 3 -3 195 c-3 142
1 235 14 343 17 141 17 155 1 265 -20 140 -24 501 -5 531 14 23 3 53 -19 49
-15 -3 -16 -27 -14 -256 1 -144 -2 -266 -7 -285 -6 -17 -13 -44 -16 -59 -4
-16 -13 -28 -21 -28 -17 0 -38 -34 -27 -45 4 -3 9 -185 12 -403 l5 -397 70 -3
c60 -3 74 -7 98 -30 16 -15 33 -34 38 -44 7 -13 3 -16 -26 -15 -73 2 -106 -83
-54 -139 21 -23 30 -25 70 -21 l46 6 156 -157 c86 -87 157 -161 157 -165 0 -5
-4 -6 -8 -3 -5 3 -26 -1 -48 -8 -21 -7 -60 -16 -86 -19 l-47 -6 -225 221 -226
222 0 332 c0 211 4 335 10 339 16 10 12 42 -7 49 -26 10 -48 -17 -34 -42 7
-14 11 -131 11 -354 l0 -333 230 -229 c191 -192 227 -232 220 -247 -17 -31
-11 -60 20 -91 32 -32 30 -32 143 -12 l37 6 0 -167 0 -167 40 -45 c32 -36 38
-49 30 -63 -16 -30 -11 -57 16 -89 21 -25 34 -31 64 -31 74 0 108 93 54 147
-22 22 -31 25 -68 20 -39 -6 -46 -3 -76 28 -32 33 -32 34 -37 152 -6 171 1
214 37 235 16 9 32 29 36 43 l7 27 48 -48 c56 -55 63 -93 29 -149 -18 -29 -18
-33 -4 -53 19 -28 60 -29 74 -2 13 24 5 56 -15 64 -10 4 -15 21 -15 54 l0 48
-261 260 c-252 252 -260 261 -249 286 9 20 9 31 0 49 l-13 24 24 -20 c13 -10
174 -168 357 -349 l332 -331 0 -287 c0 -296 -3 -338 -24 -296 -6 13 -21 27
-33 33 -18 8 -23 21 -28 82 -4 40 -5 79 -2 86 6 17 -238 265 -250 254 -4 -4
46 -60 110 -125 64 -64 117 -126 118 -137 1 -11 1 -50 1 -86 -2 -63 -4 -67
-27 -73 -63 -16 -58 -156 5 -156 15 0 20 -7 21 -30 1 -16 2 -36 4 -42 2 -19
-136 -158 -158 -158 -35 0 -57 -20 -57 -50 0 -28 22 -50 49 -50 19 0 41 32 41
58 0 21 18 45 69 96 63 63 70 73 75 120 5 40 12 54 29 61 12 6 27 20 33 32 6
13 14 20 17 16 4 -3 7 -67 7 -142 l0 -136 -162 -162 -162 -162 2 -323 c2 -178
-1 -329 -6 -336 -15 -22 -42 -2 -42 32 0 17 0 319 0 671 l0 640 -405 405 -405
405 0 482 c0 349 3 488 12 502 14 23 4 51 -19 51 -17 0 -18 -27 -15 -522 l3
-523 404 -405 405 -405 0 -662 c0 -601 -2 -663 -16 -678 -14 -13 -19 -14 -25
-3 -5 7 -9 310 -9 673 l0 660 -395 395 -395 395 0 606 c0 593 0 606 20 624 11
10 20 26 20 35 0 19 -30 50 -48 50 -20 0 -46 51 -47 89 0 29 -4 37 -21 39 -11
2 -54 36 -94 77 l-74 75 -191 0 -190 0 -85 -86 c-47 -47 -95 -90 -108 -95 -28
-11 -28 -55 0 -53 27 2 3 -34 -27 -42 -38 -9 -52 -32 -32 -51 19 -19 47 -11
47 14 0 10 30 47 66 82 57 56 67 63 75 48 10 -18 49 -24 49 -8 0 5 12 23 26
40 l26 31 151 0 151 0 49 -51 c35 -37 47 -55 41 -67 -29 -63 20 -128 89 -119
27 4 48 0 63 -10 l24 -15 0 -612 0 -611 395 -395 395 -395 0 -530 c0 -291 0
-538 0 -548 0 -15 -3 -16 -20 -7 -20 10 -20 21 -20 536 l0 526 -390 388 -390
388 0 394 0 393 -80 80 c-44 44 -80 88 -80 98 0 24 -28 33 -47 14 -19 -19 -10
-47 14 -47 10 0 50 -33 90 -72 l73 -72 0 -393 0 -392 48 -48 c120 -121 264
-274 233 -250 -18 16 -52 37 -75 49 -22 11 -85 64 -138 116 l-98 96 0 391 0
390 -89 89 c-49 49 -87 95 -84 102 14 38 -46 71 -75 42 -30 -30 -3 -78 45 -78
10 0 55 -37 101 -83 l82 -82 0 -389 0 -389 105 -108 c58 -59 105 -114 105
-122 0 -57 307 -363 342 -341 4 3 58 -43 118 -102 l110 -107 0 -141 c0 -78 -7
-181 -15 -231 -19 -115 -19 -210 0 -308 18 -93 22 -592 5 -602 -16 -10 -12
-42 7 -49 9 -4 23 0 32 9 13 12 13 19 3 35 -7 12 -12 57 -11 122 0 69 3 96 9
81 11 -26 43 -38 69 -24 14 8 20 7 24 -2 5 -15 2 -103 -7 -183 -7 -60 -7 -61
24 -87 39 -33 63 -34 118 -2 23 13 49 22 56 19 13 -5 46 20 46 35 0 5 -7 14
-15 21 -13 11 -15 61 -15 339 l0 326 170 170 170 170 5 410 c2 226 5 435 5
465 1 42 3 51 11 37 5 -9 24 -24 42 -33 18 -9 35 -22 39 -28 4 -6 8 -413 8
-904 0 -673 -3 -897 -12 -911 -9 -15 -9 -23 1 -35 16 -19 101 -22 119 -4 19
19 15 66 -8 78 -20 11 -20 16 -18 918 3 834 4 909 20 937 16 28 17 -13 18
-825 l0 -855 183 -182 182 -183 5 -563 6 -562 2 565 2 565 -165 165 c-91 91
-165 167 -165 171 0 3 15 3 33 1 25 -4 64 -37 187 -160 l155 -156 5 -515 5
-516 3 518 2 519 -56 64 -56 64 34 0 c18 0 44 7 56 16 24 16 25 16 117 -68 6
-6 12 -217 15 -576 l5 -567 3 569 2 569 -50 53 c-52 55 -55 61 -41 82 6 10 25
-3 72 -47 l64 -61 5 -677 5 -678 3 680 2 681 -64 63 c-35 35 -76 87 -91 116
-21 43 -36 58 -71 75 -25 11 -65 39 -90 62 l-44 41 0 916 0 916 -300 300
c-165 165 -300 303 -300 306 0 3 11 11 24 18 27 15 46 50 46 85 0 23 -37 66
-57 66 -18 0 -23 56 -23 274 l0 211 -125 125 -125 125 0 187 c0 132 4 194 12
208 10 16 10 23 -5 37 -16 16 -18 16 -34 0 -15 -14 -15 -21 -5 -37 8 -14 12
-77 12 -213 l0 -192 125 -125 125 -125 0 -233 0 -232 -25 -12 c-22 -10 -42
-42 -37 -60 6 -21 -22 1 -115 94 -64 64 -103 110 -103 123 0 43 -59 63 -79 28
-7 -13 -10 129 -11 455 0 357 3 477 12 492 10 16 10 23 -3 35 -24 25 -53 9
-43 -24 4 -14 9 -249 11 -521 l3 -495 470 -470 470 -470 0 -913 0 -913 44 -47
c40 -43 43 -49 30 -67 -8 -10 -14 -34 -14 -52 0 -18 -3 -33 -6 -33 -4 0 -31
21 -60 46 -46 39 -54 51 -54 80 0 23 -6 38 -20 46 -20 13 -20 24 -20 903 l0
891 -70 69 c-39 39 -92 102 -118 140 -56 83 -144 171 -221 221 -31 20 -163
143 -293 273 l-238 236 0 547 c0 465 2 548 14 548 21 0 66 58 66 84 0 12 -6
31 -14 42 -30 42 -1 84 184 269 l173 174 1 132 c1 88 5 134 12 136 18 6 24
-34 24 -172 l0 -130 -118 -118 c-64 -64 -122 -117 -128 -117 -24 0 -34 -26
-19 -46 11 -15 18 -17 31 -8 10 5 18 18 20 29 2 10 55 71 118 134 l116 116 0
151 0 150 30 23 c17 12 35 19 40 16 6 -4 10 -92 10 -223 l0 -217 -88 -88 c-49
-48 -95 -87 -103 -87 -25 0 -39 -21 -28 -42 13 -25 38 -23 48 5 5 12 53 65
106 117 l96 95 -1 200 c-1 110 -2 209 -1 220 2 20 2 20 16 1 12 -16 15 -62 15
-241 l0 -220 -78 -78 c-42 -42 -83 -77 -89 -77 -17 0 -33 -34 -24 -49 12 -19
46 -9 49 15 2 11 39 56 82 99 l80 80 0 228 c0 179 3 228 13 224 9 -3 12 -114
14 -503 1 -423 4 -499 16 -502 7 -2 19 4 26 12 10 12 10 20 -3 38 -14 20 -16
76 -16 458 0 405 5 479 27 456 10 -10 10 -683 -1 -717 -10 -33 19 -49 43 -24
13 12 13 19 3 35 -9 15 -12 109 -12 365 0 294 2 345 14 345 19 0 46 39 46 66
0 32 -37 74 -67 74 -14 0 -37 -9 -52 -19 -30 -21 -62 -22 -98 -2 -17 8 -28 9
-43 1 -16 -8 -20 -8 -20 3 0 29 -51 51 -85 37z m-1315 -1425 c58 -59 72 -77
62 -87 -9 -9 -12 -8 -12 5 0 9 -17 28 -37 41 -21 13 -51 38 -67 55 l-30 31
-175 0 -176 0 -84 -87 c-50 -50 -87 -81 -89 -74 -2 7 35 53 84 102 l89 89 180
0 181 0 74 -75z m-53 -17 c24 -23 43 -49 43 -57 0 -9 -17 1 -43 27 l-43 42
-160 0 c-158 0 -161 0 -184 -25 -23 -25 -50 -33 -50 -16 0 5 17 23 38 40 l37
30 160 1 159 0 43 -42z m562 -543 l6 -250 65 -3 65 -3 417 -417 418 -417 0
-505 0 -505 -170 -170 -170 -170 0 -332 c0 -325 -5 -374 -30 -308 -6 16 -7
153 -4 353 l6 327 159 160 159 160 0 475 0 475 -412 412 -413 412 -65 3 -65 3
-3 260 c-2 143 0 285 4 315 l7 55 10 -40 c5 -22 12 -152 16 -290z m538 -10
c12 4 145 -123 470 -447 l453 -453 0 -908 0 -909 45 -53 c42 -49 44 -53 24
-58 -15 -4 -33 5 -65 35 l-44 41 0 916 0 916 -470 470 c-258 258 -470 473
-470 477 0 5 9 -1 21 -13 12 -12 27 -18 36 -14z m355 -792 c115 -114 208 -211
208 -214 0 -4 -10 -9 -22 -13 -19 -5 -54 25 -220 192 -167 166 -197 201 -192
220 4 12 9 22 13 22 3 0 99 -93 213 -207z m-53 -47 c182 -182 192 -194 180
-215 -8 -11 -16 -21 -19 -21 -3 0 -99 94 -214 209 -219 219 -213 211 -151 220
6 0 97 -86 204 -193z m321 -1284 c0 -886 0 -897 -20 -910 -20 -12 -20 -10 -20
891 0 497 3 907 7 910 3 4 12 7 20 7 11 0 13 -156 13 -898z m-863 441 l83 -81
-1 -239 0 -238 -19 70 c-14 54 -19 106 -19 224 l-1 153 -110 115 c-60 64 -110
120 -110 126 0 5 -16 33 -36 61 -35 49 -34 48 47 -29 46 -44 121 -117 166
-162z m63 -1150 l-20 -26 0 158 c0 111 5 183 18 243 l17 85 3 -217 c2 -205 1
-219 -18 -243z"/>
<path d="M3835 8237 c-4 -13 -69 -86 -146 -163 l-139 -139 0 -179 0 -179 -183
-182 c-100 -100 -192 -185 -205 -189 -24 -8 -29 -25 -11 -43 13 -13 39 -6 39
11 0 6 86 97 190 201 l190 190 0 180 0 180 138 138 c75 75 142 137 148 137 22
0 45 26 38 43 -10 26 -52 22 -59 -6z"/>
<path d="M4865 8228 c-23 -18 -26 -26 -21 -56 5 -34 1 -40 -89 -130 l-95 -95
0 -256 0 -256 245 -245 c134 -134 245 -253 247 -264 2 -15 10 -21 28 -21 20 0
25 5 25 25 0 17 -6 26 -20 28 -11 2 -129 112 -262 245 l-243 242 0 85 c0 47 3
95 6 108 l7 23 13 -25 c7 -14 14 -61 15 -103 l2 -78 173 -175 c95 -96 174
-184 176 -195 2 -14 11 -20 28 -20 20 0 25 5 25 25 0 17 -6 26 -20 28 -11 2
-95 79 -187 170 l-168 167 0 66 c0 62 1 67 20 62 17 -5 20 -14 20 -62 l0 -56
115 -115 c63 -63 115 -122 115 -131 0 -23 24 -41 44 -33 25 10 20 53 -7 59
-13 4 -75 57 -137 120 l-113 113 5 47 c6 52 11 60 33 52 11 -5 15 -20 15 -54
l0 -48 145 -145 c80 -80 145 -152 145 -160 0 -17 19 -40 31 -40 4 0 15 7 23
16 19 19 5 54 -22 54 -9 0 -81 64 -160 143 l-142 142 0 55 c0 39 6 62 20 80
l20 25 0 -75 0 -74 56 -57 c30 -31 56 -62 57 -70 7 -41 51 -55 62 -19 8 25 -1
40 -23 40 -10 0 -41 24 -69 53 l-52 52 -2 188 -2 189 93 94 c59 59 102 94 115
94 32 0 55 -49 55 -117 0 -57 -1 -60 -50 -108 -47 -46 -50 -53 -50 -99 0 -27
-5 -65 -12 -83 -10 -29 -10 -36 2 -43 23 -15 38 -12 50 9 7 15 6 23 -5 35 -10
9 -15 34 -15 68 0 51 2 56 50 103 l50 49 0 73 c0 39 5 75 10 78 6 3 10 17 10
31 0 19 -6 26 -30 31 -16 3 -30 10 -30 15 0 5 -14 25 -32 44 -30 31 -37 34
-91 34 -54 0 -63 3 -98 35 -45 41 -66 43 -104 13z m27 -211 l-102 -102 0 -53
c0 -45 -3 -52 -20 -52 -18 0 -20 7 -20 58 l0 57 98 97 c85 84 126 113 141 101
3 -2 -41 -50 -97 -106z m8 97 c0 -4 -39 -46 -86 -94 l-86 -88 -4 -76 c-3 -41
-11 -87 -18 -101 l-13 -26 -7 23 c-3 13 -6 60 -6 105 l0 81 91 91 c51 52 99
91 110 91 10 0 19 -3 19 -6z m50 -119 c-75 -75 -90 -96 -90 -122 0 -41 -9 -63
-25 -63 -16 0 -25 22 -25 64 0 28 15 47 106 136 83 82 107 101 114 90 7 -11
-13 -37 -80 -105z m128 46 c-7 -9 -46 -48 -85 -88 l-73 -72 0 -73 0 -73 -20
30 c-13 20 -20 47 -20 81 0 50 0 51 89 137 63 62 93 85 105 81 14 -5 14 -9 4
-23z"/>
<path d="M3093 8189 c-7 -7 -9 -37 -6 -86 l6 -74 -44 -45 c-24 -24 -48 -44
-55 -44 -6 0 -17 -6 -23 -14 -9 -11 -8 -18 4 -30 23 -23 34 -20 47 12 6 15 26
43 44 62 27 30 33 44 36 98 3 47 9 66 24 76 15 12 17 19 8 32 -14 23 -27 27
-41 13z"/>
<path d="M2607 8160 c-7 -18 -19 -30 -30 -30 -23 0 -33 -28 -19 -51 7 -10 12
-28 12 -39 0 -14 -124 -146 -375 -398 l-375 -377 0 -373 0 -374 -140 -139
c-78 -76 -147 -139 -154 -139 -8 0 -19 -7 -26 -15 -10 -12 -10 -18 0 -30 20
-24 39 -18 54 18 8 17 75 93 150 167 l136 135 0 375 0 375 375 375 c340 340
375 378 375 407 0 18 5 33 10 33 6 0 10 9 10 20 0 11 5 20 10 20 6 0 10 -29
10 -68 l0 -67 -380 -380 -380 -380 0 -379 0 -380 -74 -73 c-41 -40 -81 -73
-91 -73 -11 0 -15 -7 -13 -22 5 -35 52 -32 56 3 2 16 29 51 72 94 l70 69 0
377 0 377 380 379 380 378 0 66 c0 47 4 70 15 79 29 24 11 70 -28 70 -12 0
-23 -11 -30 -30z"/>
<path d="M3650 8159 c0 -6 -40 -53 -90 -103 l-90 -92 0 -180 0 -179 -203 -203
c-111 -111 -210 -202 -220 -202 -25 0 -33 -28 -14 -47 13 -13 19 -14 31 -3 9
7 16 18 16 24 0 6 92 103 205 216 l205 205 0 180 0 180 83 82 c45 45 91 83
102 85 29 5 27 42 -2 46 -13 2 -23 -2 -23 -9z"/>
<path d="M5380 8069 c-16 -16 -32 -39 -35 -50 -5 -14 -12 -18 -29 -13 -33 8
-52 -19 -37 -52 6 -14 11 -45 11 -70 0 -40 -5 -50 -50 -97 -47 -49 -50 -55
-50 -105 0 -29 -4 -62 -10 -72 -14 -27 -2 -50 26 -50 32 0 41 26 20 60 -9 16
-16 46 -16 67 0 33 7 46 50 88 47 47 50 52 50 101 0 55 26 104 48 90 16 -10
15 -131 0 -156 -23 -36 16 -74 46 -45 20 20 20 29 1 49 -9 9 -15 33 -15 64 0
53 5 63 26 55 19 -7 21 -353 2 -383 -14 -22 -1 -55 22 -55 23 0 36 33 22 55
-8 14 -12 74 -12 200 0 173 1 180 20 180 18 0 20 -7 20 -80 0 -44 -5 -89 -12
-99 -15 -24 -4 -51 22 -51 26 0 37 27 22 51 -16 25 -16 201 0 217 7 7 16 12
20 12 12 0 10 -408 -2 -415 -15 -10 -12 -52 5 -59 36 -13 63 20 40 51 -11 14
-14 62 -15 217 0 177 2 197 16 192 9 -3 18 -6 20 -6 9 0 3 -147 -7 -157 -6 -6
-9 -21 -7 -34 2 -18 9 -24 27 -24 34 0 50 29 28 53 -12 13 -17 36 -17 79 0 59
1 60 25 55 33 -6 55 13 55 48 0 44 -26 59 -95 55 -56 -3 -62 -1 -97 31 -51 46
-98 47 -138 3z"/>
<path d="M2288 8025 c-31 -18 -40 -39 -36 -94 2 -36 -3 -46 -37 -81 -24 -24
-48 -40 -63 -40 -41 0 -62 -18 -62 -53 0 -28 -22 -54 -190 -222 l-190 -190 0
-365 0 -365 -128 -128 c-70 -70 -135 -127 -143 -127 -27 0 -44 -27 -29 -45 19
-23 39 -18 52 13 6 15 69 84 140 153 l128 126 0 370 0 369 183 181 c145 144
189 181 215 185 17 2 32 2 32 -1 0 -3 -90 -96 -200 -206 l-200 -201 0 -370 0
-370 -72 -71 c-40 -39 -82 -73 -93 -75 -14 -2 -20 -11 -20 -28 0 -20 5 -25 25
-25 18 0 26 6 28 21 2 11 36 54 77 94 l75 74 0 371 0 370 288 287 c181 180
303 294 330 307 23 12 42 27 42 33 0 24 -53 100 -76 109 -33 12 -44 11 -76 -6z
m18 -156 c4 -6 -21 -39 -58 -76 l-65 -64 0 32 c0 26 10 42 45 76 46 44 65 52
78 32z"/>
<path d="M5806 7948 c-14 -13 -28 -36 -30 -52 -3 -16 -21 -46 -41 -66 l-35
-36 0 -209 0 -210 286 -286 c157 -157 286 -292 287 -300 7 -41 52 -55 65 -19
8 21 8 21 29 -2 11 -13 23 -32 25 -42 1 -10 11 -24 21 -30 15 -9 21 -7 32 8
17 23 3 56 -23 56 -9 0 -158 141 -330 313 l-312 312 0 202 c0 190 1 203 19
213 13 7 22 7 26 0 3 -5 15 -10 26 -10 18 0 19 -9 19 -199 l0 -199 165 -164
c91 -90 165 -171 165 -179 0 -37 51 -53 69 -21 9 15 20 8 85 -58 50 -49 76
-82 76 -97 0 -30 31 -47 55 -29 22 16 16 50 -11 54 -11 2 -136 119 -277 260
l-257 258 2 174 c3 164 4 175 22 175 28 0 44 30 28 53 -11 15 -24 42 -54 108
-21 46 -92 57 -132 22z m-30 -133 c-13 -20 -16 -58 -16 -232 l0 -208 275 -275
c251 -251 295 -298 265 -288 -5 2 -138 131 -295 288 l-285 284 0 202 0 202 31
26 c38 33 46 33 25 1z m146 -217 l-3 -193 161 -160 c88 -88 160 -163 160 -167
0 -21 -30 5 -184 159 l-166 166 0 187 c0 103 3 190 7 193 24 25 28 -2 25 -185z"/>
<path d="M2150 7925 c-14 -38 -277 -295 -301 -295 -12 0 -24 12 -33 34 -8 19
-26 42 -41 52 -36 24 -102 20 -132 -7 -30 -30 -47 -82 -34 -107 9 -16 5 -27
-18 -55 -56 -71 -184 -188 -199 -182 -22 8 -62 -22 -62 -48 0 -31 18 -47 52
-47 30 0 53 30 44 58 -4 13 23 47 98 121 102 102 104 103 127 87 51 -35 135
-13 165 45 9 19 22 29 37 29 15 0 65 43 161 139 96 96 148 141 168 145 24 5
29 10 26 28 -5 35 -45 37 -58 3z"/>
<path d="M6147 7854 c-15 -8 -33 -14 -40 -13 -42 5 -49 -1 -42 -33 16 -75 16
-168 1 -222 -15 -49 -15 -60 -1 -112 8 -32 15 -68 15 -80 0 -13 38 -59 110
-130 72 -72 110 -116 110 -131 0 -13 8 -24 20 -28 25 -8 53 12 46 32 -9 22 9
15 36 -14 14 -16 28 -40 32 -55 7 -31 36 -38 56 -13 17 21 3 55 -24 55 -12 0
-38 17 -60 39 -37 38 -38 39 -15 43 18 2 25 10 27 31 2 15 0 27 -5 28 -30 3
-48 10 -69 30 -24 22 -33 46 -14 34 15 -10 40 14 40 37 0 17 2 18 15 8 9 -7
14 -19 11 -26 -8 -22 18 -47 43 -39 29 9 26 58 -4 63 -11 2 -37 20 -57 40
l-38 36 0 112 c0 107 1 113 24 131 14 10 28 29 31 43 8 34 -27 80 -61 80 -16
0 -38 13 -58 35 -37 39 -80 46 -129 19z m-17 -93 c14 -27 13 -114 -2 -129 -23
-23 -28 -11 -28 68 0 79 9 98 30 61z m68 -89 c3 -37 1 -42 -17 -42 -18 0 -21
6 -21 46 0 38 3 45 18 42 12 -2 18 -15 20 -46z m62 -34 c0 -59 -11 -73 -30
-39 -14 28 -13 108 3 114 19 7 27 -14 27 -75z m44 36 c13 -5 16 -26 16 -127 0
-110 2 -123 22 -144 21 -23 21 -23 1 -23 -11 0 -30 8 -41 19 -20 17 -22 28
-22 150 0 72 2 131 4 131 2 0 11 -3 20 -6z m-44 -233 c0 -16 6 -34 14 -40 16
-13 39 -71 28 -71 -12 0 -82 74 -82 87 0 21 23 63 31 57 5 -3 9 -18 9 -33z
m-120 -39 c0 -9 48 -65 107 -124 83 -83 103 -108 86 -108 -13 0 -59 38 -127
106 -86 86 -106 112 -106 136 0 26 2 28 20 18 11 -6 20 -18 20 -28z m60 11 c0
-10 36 -54 81 -99 50 -50 80 -88 77 -98 -2 -12 -31 12 -102 83 -69 69 -97 104
-93 115 8 21 37 20 37 -1z"/>
<path d="M3164 7813 c-4 -10 -93 -105 -198 -210 l-191 -193 -95 0 -95 0 -215
-215 c-118 -118 -220 -215 -226 -215 -6 0 -17 -7 -24 -15 -10 -12 -10 -18 0
-30 19 -23 39 -18 51 13 5 15 103 120 217 235 l207 207 95 0 96 0 179 181 c99
100 195 188 213 195 25 11 33 20 30 37 -4 27 -36 35 -44 10z"/>
<path d="M3040 7772 c0 -9 -64 -81 -143 -160 l-142 -142 -95 0 -95 0 -140
-140 c-77 -77 -145 -140 -151 -140 -19 0 -35 -26 -28 -44 9 -24 48 -16 52 10
2 11 65 82 141 158 l139 139 97 2 97 3 137 136 c75 75 142 136 148 136 19 0
43 29 37 45 -9 22 -54 19 -54 -3z"/>
<path d="M3084 7653 c-4 -10 -70 -82 -148 -160 l-141 -143 -95 0 -96 0 -133
-134 c-73 -74 -143 -136 -155 -138 -15 -2 -22 -11 -24 -30 -3 -24 0 -28 22
-28 17 0 27 7 31 23 4 12 66 82 138 155 l132 132 95 0 95 0 140 140 c76 76
148 140 159 142 15 2 21 10 21 28 0 30 -32 40 -41 13z"/>
<path d="M6513 7613 c-15 -6 -17 -59 -3 -68 6 -4 10 -135 10 -360 0 -225 -4
-356 -10 -360 -14 -9 -12 -41 4 -54 31 -26 68 19 41 49 -13 14 -15 63 -15 328
0 171 4 313 9 316 5 3 14 -1 21 -9 16 -19 14 -343 -1 -361 -20 -24 -6 -59 24
-62 15 -2 27 -7 27 -12 0 -5 7 -16 16 -24 12 -12 20 -13 35 -6 20 11 26 45 9
55 -6 4 -10 80 -10 195 0 115 4 191 10 195 6 3 10 17 10 30 0 13 -4 27 -10 30
-5 3 -10 17 -10 29 0 36 -31 67 -75 76 -22 4 -47 10 -55 13 -8 3 -21 3 -27 0z
m121 -179 c13 -13 16 -44 16 -184 0 -195 -4 -216 -31 -165 -16 30 -19 57 -19
184 0 132 4 181 15 181 2 0 11 -7 19 -16z"/>
<path d="M5303 7494 c-8 -21 8 -46 31 -50 10 -1 126 -110 257 -241 l239 -238
0 -245 0 -245 -159 -160 c-88 -87 -169 -162 -180 -167 -25 -9 -27 -30 -6 -48
18 -15 45 2 45 28 0 9 72 87 160 174 l160 158 0 258 0 257 -245 245 c-134 134
-245 253 -247 264 -4 27 -45 34 -55 10z"/>
<path d="M4361 7466 c-9 -11 -10 -20 -2 -35 7 -12 11 -94 11 -209 l0 -189 125
-125 125 -126 0 -261 c0 -155 -4 -261 -9 -261 -16 0 -23 -38 -11 -60 11 -20
35 -25 64 -14 20 8 21 57 1 74 -13 10 -15 53 -15 268 l0 255 -130 132 -131
132 4 184 c3 101 6 197 8 214 4 34 -19 46 -40 21z"/>
<path d="M4209 7394 c-10 -12 -10 -20 -1 -35 8 -13 12 -80 12 -212 l0 -192
125 -125 125 -125 0 -251 c0 -215 -2 -253 -16 -264 -9 -8 -14 -25 -12 -44 2
-26 8 -32 31 -34 16 -2 35 2 43 9 18 15 18 56 0 66 -11 6 -15 62 -20 272 l-6
263 -125 122 -125 123 0 191 c0 116 4 193 10 197 16 10 12 42 -6 49 -21 8 -20
8 -35 -10z"/>
<path d="M6687 7397 c-3 -7 1 -24 9 -38 18 -33 18 -148 -1 -173 -21 -28 -19
-41 16 -80 19 -22 43 -38 64 -42 19 -3 39 -12 46 -20 15 -18 33 -18 49 1 7 9
29 15 54 15 40 0 46 -5 171 -130 71 -71 138 -130 147 -130 15 0 16 -4 6 -25
-23 -50 -52 -35 -184 100 l-123 125 -56 0 c-31 0 -69 7 -84 15 -23 11 -32 12
-46 1 -24 -17 -15 -50 14 -54 13 -2 28 1 34 7 6 6 38 11 72 11 l60 0 125 -125
c85 -85 132 -125 147 -125 23 0 48 -33 38 -50 -3 -6 -25 -10 -48 -10 -40 0
-47 5 -167 126 -123 124 -175 162 -205 150 -22 -8 -29 -34 -15 -51 16 -19 39
-19 61 1 17 15 26 8 149 -113 l131 -129 71 -2 c69 -3 133 -26 122 -44 -3 -4
-56 -8 -117 -8 l-112 0 -120 120 c-127 127 -179 165 -208 148 -23 -12 -22 -45
1 -57 14 -7 25 -6 41 6 26 17 22 20 194 -154 l81 -83 109 0 c85 0 115 -4 138
-17 27 -16 30 -16 45 -1 16 16 12 58 -6 58 -5 0 2 25 16 55 23 49 24 59 14 91
-18 54 -103 100 -141 75 -10 -6 -27 -11 -37 -11 -9 0 -73 56 -142 125 -122
123 -124 124 -173 127 -34 2 -53 9 -61 20 -15 25 -4 30 66 32 l63 2 117 -114
c64 -63 115 -119 112 -126 -11 -31 41 -52 60 -24 14 22 -2 51 -30 56 -10 2
-68 52 -129 112 l-110 108 -72 4 c-68 3 -75 6 -101 37 -25 30 -32 33 -70 29
l-42 -4 0 63 c0 35 5 72 12 82 6 10 8 26 5 35 -8 19 -53 22 -60 3z"/>
<path d="M1582 7348 c-19 -19 -14 -62 8 -81 19 -16 20 -29 20 -280 l0 -263
-57 -56 c-32 -31 -69 -58 -82 -60 -57 -8 -59 -88 -3 -88 36 0 55 20 50 54 -2
19 9 38 51 80 l53 54 -1 269 -2 269 26 28 c30 32 31 47 7 69 -22 20 -53 22
-70 5z"/>
<path d="M5391 7336 c-19 -23 -9 -51 19 -54 16 -3 81 -59 188 -165 l162 -161
0 -236 0 -235 -78 -78 c-42 -42 -85 -77 -94 -77 -22 0 -30 -27 -12 -44 17 -18
44 -11 44 11 0 9 36 52 80 97 l80 82 0 245 0 244 -166 166 c-91 91 -171 176
-177 189 -15 30 -31 35 -46 16z"/>
<path d="M4277 7268 c-2 -7 2 -26 10 -41 11 -21 14 -57 11 -133 l-3 -104 128
-128 127 -127 0 -181 c0 -121 -4 -184 -11 -191 -17 -17 -3 -43 21 -43 24 0 38
26 21 43 -7 7 -11 73 -11 202 l-1 190 -125 125 -126 125 4 138 c4 136 4 137
-18 137 -12 0 -24 -6 -27 -12z"/>
<path d="M1246 7263 c-4 -4 -36 -6 -72 -5 -76 4 -89 -4 -116 -67 -17 -40 -17
-46 -3 -67 13 -20 15 -57 13 -221 -3 -182 -4 -198 -21 -201 -17 -4 -18 5 -13
140 3 78 8 171 12 205 5 55 4 63 -14 72 -36 19 -135 -8 -154 -42 -17 -33 -19
-144 -2 -158 12 -9 14 -71 14 -365 0 -197 -4 -354 -9 -354 -5 0 -14 7 -21 15
-33 40 -120 -2 -120 -59 0 -65 64 -105 115 -72 13 9 27 16 30 16 3 0 6 -154 7
-342 l1 -343 8 395 c5 217 5 417 2 444 -6 59 6 276 16 276 27 0 31 -67 33
-538 l2 -487 6 485 c4 267 7 486 8 488 1 1 11 -2 22 -8 20 -10 20 -21 20 -447
0 -240 3 -433 7 -430 3 4 9 201 12 439 5 376 8 433 21 433 13 0 16 -66 20
-515 4 -364 6 -443 9 -270 9 703 11 792 21 811 6 11 15 17 21 14 5 -4 9 -226
9 -572 0 -312 2 -564 5 -561 3 2 5 393 6 869 1 725 3 868 15 887 8 12 19 22
24 22 7 0 10 -321 10 -902 0 -496 2 -899 5 -897 2 3 6 417 7 921 3 924 4 954
37 934 8 -5 11 -259 11 -869 -1 -709 -3 -874 -15 -927 -19 -84 -19 -239 0
-315 20 -85 20 -248 -1 -266 -13 -10 -17 -10 -25 2 -5 8 -10 127 -11 264 l-2
250 -6 -270 c-4 -148 -10 -283 -15 -299 -7 -24 -4 -32 21 -52 51 -41 116 -28
129 28 6 22 0 34 -30 65 l-37 38 5 115 c4 63 12 133 19 155 16 56 14 252 -3
290 -12 25 -15 185 -17 895 -3 800 -2 867 14 897 14 27 15 35 4 48 -14 17 -23
19 -34 8z m-116 -374 c0 -126 -4 -229 -9 -229 -5 0 -14 7 -21 15 -19 22 -17
435 2 446 6 4 16 5 20 3 4 -3 8 -108 8 -235z m-120 -63 c0 -90 -3 -116 -15
-126 -9 -7 -18 -10 -21 -7 -9 9 -10 209 -2 230 4 9 14 17 23 17 13 0 15 -18
15 -114z m-60 -16 c0 -95 -4 -128 -17 -153 l-17 -32 -9 90 c-13 142 -1 214 36
215 4 0 7 -54 7 -120z"/>
<path d="M4624 7236 c-27 -27 -34 -42 -34 -73 0 -38 18 -76 48 -100 19 -16 96
-17 123 -3 27 15 49 62 49 106 0 54 -53 104 -110 104 -34 0 -48 -6 -76 -34z"/>
<path d="M5309 7254 c-16 -19 -1 -47 27 -52 10 -2 81 -65 157 -140 l137 -137
0 -203 0 -204 -49 -48 c-27 -26 -59 -51 -70 -55 -23 -7 -30 -50 -8 -58 19 -7
37 4 37 22 0 9 25 41 55 71 l55 54 0 216 0 215 -140 140 c-77 77 -140 147
-140 155 0 19 -19 40 -36 40 -6 0 -17 -7 -25 -16z"/>
<path d="M5430 7205 c-11 -13 -10 -19 5 -35 10 -11 22 -17 27 -14 5 4 60 -45
123 -107 l112 -114 -1 -218 -2 -218 -144 -144 c-80 -80 -153 -145 -163 -145
-24 0 -33 -28 -15 -46 17 -18 48 -8 48 15 0 9 68 84 150 166 l150 150 0 224 0
224 -114 116 c-63 64 -116 125 -118 136 -4 25 -40 31 -58 10z"/>
<path d="M4138 7105 c-3 -3 -3 -45 -1 -93 l5 -87 129 -130 129 -130 0 -182 c0
-110 -4 -184 -10 -188 -16 -10 -12 -45 6 -52 25 -9 48 20 35 45 -7 13 -11 90
-11 204 l0 183 -126 125 -125 125 3 90 c2 75 0 90 -12 93 -9 1 -19 0 -22 -3z"/>
<path d="M5419 7064 c-16 -19 -1 -47 27 -52 10 -2 40 -25 67 -50 l47 -46 0
-191 0 -190 -87 -86 c-49 -48 -96 -89 -106 -93 -12 -4 -17 -14 -15 -28 5 -35
40 -30 58 8 8 17 52 67 98 112 l82 81 0 193 0 194 -55 54 c-30 30 -55 61 -55
70 0 19 -19 40 -36 40 -6 0 -17 -7 -25 -16z"/>
<path d="M3235 7049 c-30 -17 -45 -40 -45 -70 0 -41 9 -58 41 -75 l29 -15 0
-566 0 -566 120 -120 120 -120 0 -116 0 -116 155 -155 c123 -123 155 -160 155
-182 0 -29 23 -58 46 -58 8 0 23 9 34 20 27 27 13 64 -26 68 -22 3 -66 40
-181 155 l-153 152 0 116 0 116 -125 125 -125 125 0 551 c0 303 3 557 6 566 3
9 12 16 20 16 20 0 44 41 44 76 0 59 -66 101 -115 73z"/>
<path d="M4805 7014 c-7 -3 -9 -193 -7 -551 l3 -548 203 -205 204 -205 5 -879
5 -879 194 -194 194 -194 579 1 c318 0 581 3 584 5 2 3 -255 5 -571 5 l-576 0
-191 191 c-105 105 -191 197 -192 203 0 6 0 400 1 876 l1 865 -206 205 -205
205 0 522 c0 337 4 524 10 528 25 15 -7 59 -35 49z"/>
<path d="M2373 6860 c-78 -77 -148 -140 -156 -140 -21 0 -30 -31 -14 -47 17
-17 47 -6 47 17 0 10 62 79 138 154 l137 136 185 0 186 0 55 -57 c31 -32 63
-70 72 -85 11 -17 23 -25 32 -22 23 9 18 43 -7 53 -13 5 -50 37 -83 70 l-59
61 -196 0 -196 0 -141 -140z"/>
<path d="M4909 6984 c-10 -12 -10 -20 -1 -35 19 -31 16 -313 -5 -380 -23 -76
-23 -296 0 -358 12 -30 17 -74 17 -140 l0 -97 60 -59 c53 -52 60 -64 60 -98 0
-37 7 -47 120 -159 l120 -119 0 -213 0 -212 50 -49 50 -49 0 -105 0 -104 -56
-59 -57 -60 5 -453 6 -453 183 -181 184 -180 720 1 c396 1 704 3 685 5 -19 1
-69 6 -110 9 l-75 7 34 14 c18 8 79 17 135 21 l101 7 -101 6 c-55 4 -125 16
-155 26 -80 27 -393 26 -459 -2 -40 -17 -80 -19 -389 -23 l-344 -4 -168 168
-169 169 0 415 0 415 57 51 57 51 4 144 3 144 -50 50 -51 49 0 217 0 218 -120
112 -120 113 0 343 0 342 35 35 c58 58 42 138 -29 152 -56 10 -105 -26 -106
-79 0 -39 15 -64 50 -82 l30 -16 0 -352 -1 -352 116 -110 115 -110 2 -217 1
-217 49 -48 48 -47 0 -142 0 -142 -56 -48 -57 -48 7 -430 7 -431 161 -162 161
-161 356 -4 c303 -3 360 -5 385 -19 28 -15 22 -16 -140 -23 -93 -4 -268 -7
-389 -5 l-220 1 -183 182 -183 181 3 447 3 447 53 53 52 54 0 115 0 115 -45
44 -45 44 0 215 0 214 -125 127 c-112 113 -125 130 -125 161 0 29 -9 44 -61
94 l-61 60 8 150 c9 180 9 324 -1 587 -6 170 -5 199 8 219 29 40 -13 81 -44
43z"/>
<path d="M5244 6906 c-9 -23 3 -46 24 -46 10 0 35 -17 55 -38 36 -36 37 -41
37 -108 0 -68 1 -71 40 -109 21 -21 40 -48 42 -59 4 -26 52 -35 61 -12 7 17
-17 46 -37 46 -6 0 -29 17 -49 38 -36 36 -37 41 -37 108 0 68 -1 71 -40 109
-21 21 -40 48 -42 59 -4 26 -45 35 -54 12z"/>
<path d="M1391 6873 c-12 -8 -21 -25 -21 -37 0 -13 -9 -35 -20 -49 -19 -23
-20 -40 -20 -257 l0 -233 65 -65 65 -65 0 -137 c0 -124 -2 -139 -20 -155 -25
-23 -25 -47 0 -70 17 -15 24 -16 45 -7 31 14 33 50 5 82 -18 21 -20 37 -20
164 l0 142 -60 59 -60 59 0 231 c0 166 3 234 12 243 7 7 27 12 45 12 23 0 37
7 48 24 30 45 -20 91 -64 59z"/>
<path d="M5166 6824 c-8 -20 10 -44 33 -44 9 0 38 -22 64 -48 l47 -48 0 -79
c0 -72 -2 -81 -27 -107 -15 -15 -32 -28 -39 -28 -19 0 -26 -32 -11 -47 19 -19
47 -5 47 23 0 14 10 30 25 40 24 16 25 21 25 113 l0 97 -49 48 c-27 27 -52 59
-55 72 -7 28 -50 34 -60 8z"/>
<path d="M6022 6818 c-6 -6 -12 -18 -12 -25 0 -14 34 -35 43 -27 3 3 39 -28
81 -68 l76 -74 0 -205 0 -205 -53 -52 c-29 -29 -60 -52 -69 -52 -19 0 -30 -23
-22 -45 6 -15 53 -22 55 -7 3 34 14 52 58 96 l51 52 0 214 0 215 -70 68 c-38
38 -75 81 -82 95 -15 30 -38 38 -56 20z"/>
<path d="M4720 6793 c-1 -5 -1 -204 0 -443 l1 -435 219 -220 220 -220 0 -880
0 -880 214 -208 213 -208 824 1 c452 0 825 3 828 5 2 3 -367 5 -820 5 l-824 0
-208 208 -207 207 0 880 0 880 -215 215 -215 215 0 415 c0 238 4 421 10 430 5
9 5 19 -2 27 -11 14 -38 18 -38 6z"/>
<path d="M5947 6774 c-4 -4 -7 -17 -7 -30 0 -17 7 -24 29 -29 17 -4 52 -30 85
-65 l56 -59 0 -173 0 -174 -33 -33 c-19 -17 -38 -31 -43 -30 -27 5 -35 -3 -32
-28 2 -22 8 -28 28 -28 18 0 26 6 28 21 2 12 19 36 38 54 l34 34 0 184 0 184
-64 66 c-35 37 -66 76 -68 87 -3 20 -37 32 -51 19z"/>
<path d="M6657 6728 c-8 -18 -24 -42 -36 -52 -17 -16 -21 -30 -21 -82 0 -91
-3 -96 -60 -88 -60 8 -105 -15 -121 -63 -23 -71 26 -133 105 -133 63 0 109 89
76 150 -7 13 -6 21 5 30 11 9 15 33 15 87 0 69 2 77 27 96 14 12 35 22 46 22
25 2 38 25 26 47 -16 29 -47 22 -62 -14z"/>
<path d="M5922 6668 c-22 -22 -14 -48 18 -54 52 -11 60 -37 60 -197 0 -153 -5
-172 -47 -161 -40 11 -71 -54 -41 -84 29 -29 95 1 85 39 -3 10 1 23 9 30 22
18 20 341 -2 359 -8 8 -21 28 -29 47 -15 34 -32 42 -53 21z"/>
<path d="M6774 6665 c-4 -8 1 -26 10 -40 14 -21 16 -77 16 -467 l0 -444 61
-59 c33 -33 65 -69 71 -80 9 -16 8 -18 -3 -7 -21 19 -55 14 -88 -14 -24 -20
-31 -34 -31 -63 0 -39 28 -81 54 -81 21 0 26 -24 26 -129 l0 -97 50 -49 c36
-35 50 -57 50 -76 0 -27 22 -59 41 -59 27 0 49 22 49 50 0 33 -6 39 -50 44
-21 2 -47 18 -76 47 l-44 43 0 108 c0 107 0 109 25 118 29 11 48 53 43 92 -3
20 -1 25 9 20 7 -4 119 -112 248 -240 l235 -232 -46 -45 -46 -45 -328 0 c-264
0 -329 3 -333 13 -11 28 3 1032 15 1054 15 30 4 53 -26 53 -30 0 -40 -25 -21
-53 13 -18 15 -96 15 -549 l0 -528 323 0 c177 0 332 -3 345 -6 13 -4 22 -14
22 -25 0 -16 -8 -19 -46 -19 -27 0 -43 -4 -39 -10 3 -5 26 -10 49 -10 40 0 78
-22 63 -36 -7 -8 -177 -10 -534 -6 l-293 2 0 605 c0 471 3 606 13 614 87 70
102 104 67 159 -34 55 -110 70 -148 30 -11 -13 -25 -35 -31 -51 -15 -39 11
-102 50 -119 18 -8 29 -21 29 -33 0 -11 2 -69 4 -130 2 -60 4 -331 5 -602 l1
-492 463 -3 c254 -2 498 0 542 3 76 5 78 6 38 13 -24 5 -43 12 -43 15 0 14 25
31 46 31 13 0 26 5 29 10 3 6 -3 10 -14 10 -23 0 -37 18 -24 31 5 5 29 13 54
18 l44 9 -48 1 c-35 1 -52 6 -65 22 -9 12 -23 27 -29 34 -17 18 3 25 75 27 39
1 21 4 -58 11 l-115 9 -327 332 -327 331 -1 334 0 334 20 -23 c19 -22 20 -37
20 -325 l0 -301 329 -327 329 -327 58 0 c70 0 68 6 -6 13 l-54 5 -319 325
-318 325 0 298 c0 200 4 300 11 302 17 6 40 33 40 47 0 8 -11 27 -24 42 -25
28 -25 28 -55 11 l-31 -17 0 85 c0 46 5 93 12 103 6 10 8 26 5 35 -8 20 -56
21 -63 1z"/>
<path d="M2732 6645 c-39 -17 -66 -73 -57 -116 17 -76 120 -105 176 -50 81 81
-14 213 -119 166z"/>
<path d="M4100 6653 c-8 -3 -27 -17 -42 -31 -22 -21 -28 -35 -28 -70 0 -36 5
-49 31 -73 46 -42 99 -41 145 5 37 37 41 59 20 111 -21 48 -78 75 -126 58z"/>
<path d="M2239 6489 l-119 -120 0 -207 0 -207 185 -185 c141 -142 187 -194
197 -225 12 -37 16 -40 48 -40 31 0 35 3 38 28 4 37 -15 60 -45 54 -17 -3 -33
5 -56 26 -29 28 -30 31 -12 35 11 2 24 10 28 18 4 8 19 14 32 14 14 0 34 9 45
20 45 45 7 117 -55 107 -25 -4 -38 -1 -51 14 -15 17 -16 21 -2 32 39 31 19 87
-32 87 -20 0 -37 10 -59 35 l-31 36 0 146 0 146 86 87 c47 48 81 90 77 93 -5
3 -47 -31 -92 -77 l-82 -83 -6 -161 -5 -160 41 -43 c40 -42 49 -59 33 -59 -4
0 -29 22 -55 48 l-47 48 0 164 0 165 51 47 c28 25 50 51 48 57 -2 6 -30 -14
-62 -45 l-57 -55 0 -172 0 -173 75 -74 c41 -41 75 -78 75 -82 0 -22 -30 -1
-101 70 l-79 77 0 180 0 180 125 125 c69 69 125 131 125 140 0 8 -61 -46 -135
-120 l-135 -135 0 -188 0 -187 85 -85 c78 -78 98 -105 77 -105 -4 0 -51 44
-105 98 l-97 97 0 185 0 185 76 76 c42 42 72 79 66 82 -5 4 -44 -30 -87 -74
l-78 -80 7 -197 7 -197 134 -136 c74 -74 135 -141 135 -149 0 -18 -10 -9 -172
153 l-138 137 0 203 0 202 120 118 c66 65 120 120 120 122 0 20 -38 -12 -141
-116z m226 -769 c3 -5 1 -10 -4 -10 -6 0 -11 5 -11 10 0 6 2 10 4 10 3 0 8 -4
11 -10z"/>
<path d="M683 6574 c-3 -9 0 -26 7 -38 11 -17 15 -108 17 -445 1 -233 5 -426
8 -429 3 -3 5 189 5 426 0 317 3 437 12 451 9 15 9 23 -1 35 -17 21 -40 20
-48 0z"/>
<path d="M623 6504 c-3 -8 -1 -20 6 -27 21 -21 12 -33 -23 -29 -75 9 -118 -92
-58 -137 15 -12 33 -26 40 -31 13 -12 16 -153 4 -180 -5 -10 -22 -15 -50 -16
-119 -2 -150 -159 -43 -214 l41 -20 0 -103 0 -102 -35 -28 c-26 -21 -35 -36
-35 -58 0 -37 39 -79 74 -79 19 0 25 -6 28 -27 2 -20 9 -29 26 -31 27 -4 40
23 23 50 -9 15 -9 28 -1 54 9 25 9 43 1 66 -15 42 -14 260 1 293 22 48 28 3
28 -214 0 -118 2 -212 5 -209 3 2 7 198 10 434 3 236 7 473 8 527 4 96 3 97
-20 97 -13 0 -26 -7 -30 -16z m27 -328 c0 -125 -10 -163 -30 -111 -14 38 -13
208 2 223 7 7 16 12 20 12 4 0 8 -56 8 -124z m-51 -431 c1 -102 -10 -132 -35
-100 -21 28 -17 201 6 215 22 14 29 -11 29 -115z"/>
<path d="M7520 6440 c-18 -18 -34 -20 -163 -20 -91 0 -147 4 -154 11 -6 6 -21
8 -33 4 -16 -5 -20 -13 -18 -33 4 -32 37 -42 58 -17 7 8 28 15 46 15 33 0 45
-12 24 -25 -16 -10 -12 -45 6 -52 8 -3 30 2 48 12 25 13 49 17 104 13 73 -4
89 -9 77 -27 -8 -14 -281 -15 -290 -1 -17 28 -71 -3 -59 -34 7 -18 49 -22 59
-6 4 6 67 10 155 10 140 0 149 -1 155 -20 3 -11 12 -20 18 -20 7 0 6 -4 -3
-10 -24 -16 -96 -12 -110 6 -8 8 -22 20 -32 25 -29 15 -68 -13 -68 -49 0 -35
17 -52 52 -52 19 0 26 -4 22 -14 -5 -13 20 -46 35 -46 4 0 16 7 27 15 11 8 41
15 69 15 46 0 55 -4 88 -38 27 -27 37 -47 37 -69 0 -38 39 -74 70 -66 22 6 50
40 50 61 0 7 -11 24 -25 38 -18 18 -31 23 -50 18 -20 -5 -34 2 -70 35 -41 37
-49 41 -98 41 -57 0 -107 17 -107 37 0 20 44 26 125 18 70 -6 74 -8 84 -37 8
-23 16 -29 33 -26 18 2 23 9 23 33 0 25 -4 30 -27 33 -16 2 -28 5 -28 7 0 2
11 16 25 31 54 58 21 144 -60 160 -20 3 -39 12 -42 19 -8 23 -33 25 -53 5z
m-7 -52 l22 -12 -25 -7 c-68 -19 -190 -6 -190 21 0 14 167 12 193 -2z"/>
<path d="M6949 6389 c-22 -22 -19 -55 10 -77 14 -11 16 -45 19 -264 l3 -252
67 -66 c37 -36 96 -97 132 -135 l65 -69 -55 48 c-30 27 -67 54 -82 60 -15 7
-59 40 -97 76 l-71 63 0 119 c0 72 5 125 12 137 15 24 4 51 -21 51 -29 0 -44
-32 -26 -56 10 -14 14 -50 15 -134 l0 -115 63 -66 c72 -75 91 -98 108 -131 22
-42 163 -180 229 -224 36 -23 101 -79 145 -123 l80 -81 180 2 180 3 -176 2
-177 3 -86 91 c-48 49 -93 104 -101 122 -7 18 -37 59 -66 92 l-53 60 50 -45
c27 -25 103 -98 169 -162 l120 -118 190 -2 c182 -3 190 -4 190 -23 1 -11 4
-26 8 -33 11 -17 0 -32 -23 -32 -10 0 -22 -4 -25 -10 -3 -5 -1 -10 4 -10 22 0
10 -29 -16 -38 -25 -9 -26 -11 -6 -11 31 -1 59 -54 38 -71 -11 -9 -12 -16 -3
-30 9 -14 9 -22 -2 -35 -13 -15 -12 -20 9 -36 12 -10 20 -23 16 -29 -9 -15 13
-40 35 -40 26 0 33 27 12 48 -17 17 -23 74 -9 88 4 4 7 15 7 24 0 9 11 27 25
40 28 27 30 39 13 87 -10 27 -9 41 4 76 11 30 13 49 6 67 -6 14 -12 52 -14 84
-3 33 -7 63 -10 68 -7 11 -41 10 -49 -2 -4 -6 -64 -10 -146 -10 l-140 0 -257
261 c-252 256 -257 262 -266 312 -7 41 -5 58 9 84 20 37 14 63 -13 63 -35 0
-46 -26 -28 -64 9 -19 16 -58 16 -88 l0 -54 270 -268 270 -268 133 3 c139 4
167 -2 146 -28 -10 -12 -10 -16 1 -23 7 -4 10 -15 7 -24 -6 -14 -30 -16 -179
-16 l-173 0 -293 293 -292 292 0 104 c0 78 4 110 17 131 14 24 14 31 4 44 -8
9 -19 16 -26 16 -7 0 -18 -7 -26 -16 -10 -13 -10 -20 4 -44 13 -22 17 -53 17
-142 l-1 -113 293 -287 293 -288 173 0 c160 0 173 -1 170 -17 -3 -16 -21 -18
-193 -19 l-190 -1 -293 297 -294 297 -1 241 c-2 238 -2 241 21 262 27 25 29
61 4 83 -25 23 -48 21 -73 -4z"/>
<path d="M7091 6371 c-10 -6 -11 -17 -6 -37 5 -16 10 -131 12 -256 l4 -226
280 -276 281 -276 144 0 c93 0 144 4 144 10 0 7 -50 10 -142 10 l-143 -2 -270
272 c-148 149 -272 273 -274 275 -2 2 -3 100 -3 218 1 159 4 221 14 236 20 33
-10 72 -41 52z"/>
<path d="M5265 6364 c-7 -3 -10 -58 -7 -162 l4 -157 54 -55 c36 -38 54 -64 54
-81 0 -30 17 -49 45 -49 27 0 45 18 45 45 0 28 -19 45 -50 45 -18 0 -41 15
-73 48 l-47 48 0 129 c0 72 4 137 9 144 6 9 6 22 0 33 -10 18 -15 20 -34 12z"/>
<path d="M6396 6315 c-19 -20 -19 -25 -1 -49 12 -16 15 -68 15 -295 0 -152 -3
-285 -6 -296 -4 -16 -14 -20 -50 -21 l-44 -1 0 95 c0 85 3 98 22 119 30 32 16
76 -25 81 -55 7 -77 -47 -36 -84 20 -18 21 -25 15 -149 -4 -71 -6 -139 -6
-150 1 -11 4 -186 6 -390 l5 -370 157 -157 157 -158 505 2 c278 1 480 3 450 5
-30 2 -71 6 -90 9 l-35 7 55 14 c30 7 78 17 105 22 50 8 50 8 15 13 -170 29
-305 35 -405 18 -33 -6 -172 -10 -310 -10 l-249 -1 -138 138 -138 138 0 317
c0 309 5 358 31 317 5 -8 9 -145 9 -304 l0 -290 138 -138 137 -137 410 2 410
1 -410 9 -410 9 -133 137 -134 136 4 305 c3 201 8 315 16 334 9 20 9 34 0 55
-17 39 -15 646 2 666 16 20 9 60 -11 64 -9 2 -24 -4 -33 -13z m-52 -841 c3 -9
6 -154 6 -322 l0 -307 148 -147 147 -147 245 -4 c178 -2 260 -8 300 -18 l55
-16 -34 -6 c-18 -4 -160 -7 -314 -7 l-281 0 -153 154 -153 155 0 340 c0 285 2
341 14 341 8 0 17 -7 20 -16z"/>
<path d="M2460 6281 c-5 -11 -10 -24 -10 -30 0 -17 31 -41 53 -41 15 0 74 -51
185 -163 l162 -162 0 -332 c0 -316 -4 -362 -28 -338 -4 4 -8 149 -9 323 l-2
316 -126 126 c-84 85 -124 131 -120 141 7 19 -28 52 -51 47 -9 -1 -23 -12 -30
-23 -19 -29 6 -65 44 -65 21 0 53 -25 145 -118 l117 -117 0 -328 c0 -284 -2
-327 -15 -327 -13 0 -15 41 -15 305 l0 306 -144 142 c-80 79 -150 155 -155
171 -8 20 -17 27 -33 24 -31 -4 -36 -36 -8 -46 12 -5 89 -75 172 -158 l149
-149 -2 -368 -3 -367 70 -64 c38 -35 203 -196 367 -358 l297 -294 0 -99 c-1
-78 -3 -96 -12 -80 -40 74 -138 53 -138 -30 0 -27 7 -39 30 -57 30 -22 30 -22
30 -126 0 -103 0 -104 -30 -132 -21 -20 -30 -37 -30 -60 0 -23 9 -40 30 -60
l30 -28 0 -182 c0 -101 -4 -190 -10 -200 -14 -26 -2 -50 25 -50 29 0 40 28 20
50 -12 13 -15 49 -15 192 0 183 3 208 26 208 7 0 20 10 28 22 15 21 16 4 16
-205 0 -133 -4 -236 -10 -247 -11 -21 14 -55 32 -44 6 4 27 -12 48 -35 44 -48
66 -51 127 -16 47 28 54 50 27 90 -12 19 -15 47 -12 142 2 65 2 326 1 581 l-3
462 -380 381 -380 381 0 377 0 376 -105 105 c-79 79 -105 111 -105 130 0 52
-61 71 -81 26 -16 -33 4 -66 39 -66 21 0 50 -23 129 -102 l103 -103 0 -372 c0
-339 -5 -408 -24 -357 -3 9 -6 167 -6 352 l0 337 -165 165 c-128 127 -165 171
-165 190 0 14 -5 31 -12 38 -18 18 -56 14 -68 -7z m883 -1545 l317 -317 0
-444 c0 -245 -2 -445 -4 -445 -2 0 -11 3 -20 6 -14 5 -16 53 -16 433 l0 426
-340 340 c-289 289 -340 344 -340 369 l0 29 43 -40 c23 -22 185 -182 360 -357z
m-76 -18 l333 -333 0 -410 c0 -225 -4 -416 -9 -424 -5 -8 -16 -11 -25 -8 -14
6 -16 50 -16 419 l0 413 -320 320 c-243 243 -319 325 -314 338 3 9 9 17 13 17
3 0 156 -150 338 -332z m-55 -35 l328 -327 0 -402 c0 -348 -2 -409 -17 -454
-15 -48 -15 -54 0 -98 28 -78 20 -150 -16 -136 -16 6 -17 50 -17 538 l0 531
-327 329 c-333 334 -335 337 -284 345 3 1 152 -146 333 -326z m258 -735 c0
-159 -1 -171 -16 -150 -8 12 -21 22 -28 22 -21 0 -26 24 -26 131 0 97 1 100
25 111 14 6 28 22 31 35 4 13 8 23 10 23 2 0 4 -78 4 -172z m130 -618 c0 -10
-8 -26 -17 -36 -16 -16 -18 -15 -26 4 -5 11 -7 32 -3 47 6 22 9 24 26 15 11
-6 20 -19 20 -30z m60 -5 c0 -46 -7 -54 -28 -33 -13 13 -16 60 -5 71 19 20 33
5 33 -38z"/>
<path d="M1641 6184 c-26 -19 -27 -44 -1 -74 20 -23 20 -37 20 -750 0 -400 -3
-730 -6 -733 -4 -3 -15 -2 -25 4 -18 9 -19 30 -19 444 0 327 3 440 12 455 10
16 10 23 -4 36 -24 24 -41 8 -32 -30 12 -51 16 -864 4 -886 -6 -11 -17 -20
-25 -20 -13 0 -15 64 -15 471 l0 472 25 23 c30 28 32 57 5 84 -24 24 -48 25
-78 4 -31 -22 -29 -67 5 -93 l26 -21 -1 -468 c-1 -257 -1 -473 -2 -479 0 -19
-28 -16 -38 5 -8 15 -8 595 0 667 2 24 -1 30 -17 30 -16 0 -19 -5 -16 -25 2
-14 6 -171 8 -349 2 -232 0 -327 -8 -337 -16 -19 -4 -44 21 -44 12 0 36 -16
54 -35 39 -41 82 -46 134 -15 36 22 37 25 17 60 -12 21 -14 116 -15 571 0 300
3 548 6 552 4 3 13 -1 22 -9 10 -11 25 -14 44 -10 27 5 45 -10 268 -235 l238
-240 6 -176 6 -176 -138 -142 c-138 -143 -172 -167 -172 -121 0 14 -10 30 -25
40 -24 16 -25 20 -25 136 0 68 5 130 11 144 16 34 -4 61 -32 45 -23 -12 -24
-32 -4 -49 12 -10 15 -38 15 -134 0 -118 1 -123 25 -146 21 -19 24 -30 19 -55
-3 -16 -10 -34 -15 -39 -23 -25 -1 -90 41 -123 29 -23 86 -16 118 16 20 21 33
27 43 20 20 -12 86 -11 94 2 4 5 1 24 -6 40 l-12 31 146 146 146 147 2 110 c0
61 1 159 0 219 l-1 109 -280 277 c-154 153 -284 290 -290 305 -12 32 -42 31
-50 -3 -5 -23 -6 -23 -38 11 -26 27 -32 40 -27 59 11 43 -42 77 -73 46 -27
-27 -7 -78 31 -78 12 0 141 -123 338 -322 l318 -323 0 -195 0 -195 -139 -142
c-80 -82 -140 -151 -140 -162 0 -10 -6 -24 -14 -30 -11 -9 -18 -4 -35 24 -11
20 -21 40 -21 44 0 5 58 66 130 137 l130 128 0 196 0 195 -155 153 c-142 141
-154 155 -149 182 5 22 0 34 -19 54 -33 33 -51 33 -84 0 l-26 -26 -53 53 c-46
45 -54 59 -54 90 0 22 -7 42 -18 52 -21 19 -67 23 -77 7 -18 -29 -25 15 -25
150 0 138 2 151 21 169 45 41 0 109 -50 75z m557 -667 l282 -283 0 -200 0
-200 -150 -152 c-82 -83 -150 -159 -150 -167 0 -20 -19 -19 -27 1 -4 11 37 59
141 163 l146 146 0 205 0 205 -282 282 c-196 196 -277 283 -263 283 13 0 120
-100 303 -283z m-41 -149 l153 -152 0 -186 0 -185 -131 -132 c-72 -73 -138
-133 -146 -133 -21 0 18 44 138 159 l99 93 0 192 0 191 -136 135 c-138 137
-165 170 -143 170 7 0 81 -68 166 -152z"/>
<path d="M5667 6140 c-14 -11 -28 -33 -32 -49 -8 -36 16 -87 45 -96 11 -3 20
-10 20 -15 0 -5 3 -16 6 -25 5 -13 2 -15 -18 -10 -33 8 -54 -16 -39 -44 8 -13
11 -249 11 -743 l0 -723 273 -273 273 -273 454 1 c250 0 456 3 459 5 2 3 -200
5 -449 5 l-454 0 -268 272 -268 271 2 725 c2 570 6 726 16 730 9 3 12 -142 12
-703 l0 -707 66 -72 c37 -39 85 -96 108 -126 65 -89 115 -139 211 -211 50 -37
103 -81 119 -98 l30 -31 495 2 496 2 -335 7 c-184 3 -408 7 -497 8 l-162 1
-53 64 c-29 35 -64 83 -78 106 -34 56 -160 180 -212 208 -24 13 -71 48 -105
78 l-63 55 0 600 c0 476 3 600 13 597 9 -4 13 -130 15 -578 l2 -574 257 -253
257 -253 394 0 c216 0 391 3 389 8 -3 4 -180 8 -394 10 l-388 3 -248 247 -247
247 2 568 c2 369 6 567 13 567 7 0 11 -191 13 -548 l2 -548 244 -242 243 -242
478 0 c263 0 476 2 474 5 -3 2 -215 5 -471 6 l-466 2 -241 241 -241 241 2 720
c2 396 6 727 11 735 5 10 -8 31 -41 68 -55 59 -90 67 -135 32z m141 -241 c4
-136 2 -144 -43 -145 l-35 -1 0 113 c0 113 0 113 28 128 15 8 32 14 37 12 6
-1 11 -49 13 -107z"/>
<path d="M1892 6075 c-55 -46 -46 -130 17 -168 43 -25 76 -21 116 14 27 24 35
39 35 65 0 97 -97 149 -168 89z"/>
<path d="M7284 6085 c-4 -8 -4 -22 0 -30 6 -17 51 -20 61 -5 3 6 52 10 112 10
l106 0 143 -140 c79 -77 150 -140 158 -140 9 0 16 -4 16 -9 0 -13 -26 -21 -65
-21 -25 0 -38 7 -57 33 -23 31 -40 63 -42 80 -2 13 -49 47 -67 47 -8 0 -40 23
-70 50 -37 34 -60 49 -73 46 -10 -3 -32 2 -48 10 -35 18 -61 4 -56 -30 4 -26
40 -33 58 -11 21 26 63 18 98 -18 37 -38 39 -48 12 -64 -16 -11 -24 -9 -48 12
-27 23 -38 25 -124 25 -82 0 -97 3 -113 20 -35 38 -95 16 -95 -35 0 -51 76
-69 100 -24 10 17 22 19 110 19 96 0 99 -1 118 -27 14 -21 17 -34 11 -51 -22
-58 49 -130 116 -119 26 4 40 -1 66 -23 27 -23 44 -29 81 -30 43 0 49 -3 63
-31 9 -17 31 -37 51 -45 87 -36 162 64 104 139 -11 14 -41 33 -68 42 -44 16
-48 20 -44 46 5 34 -20 49 -50 30 -24 -15 -17 -20 -167 132 l-106 107 -112 0
c-64 0 -114 4 -118 10 -10 15 -55 12 -61 -5z m472 -326 c12 -11 40 -23 63 -26
42 -6 46 -10 35 -37 -5 -12 -20 -16 -59 -16 -46 0 -57 4 -74 26 -16 21 -18 30
-9 50 14 29 16 29 44 3z"/>
<path d="M4518 5999 c-27 -15 -24 -68 5 -78 12 -5 27 -7 32 -5 6 3 61 -47 123
-109 101 -101 112 -116 104 -137 -23 -61 25 -116 94 -106 39 5 42 3 107 -62
l67 -68 0 -909 0 -909 164 -165 c147 -148 164 -169 159 -193 -4 -20 1 -33 21
-51 l26 -24 3 -654 2 -654 3 656 c2 642 2 656 22 674 39 35 16 94 -36 95 -15
0 -76 54 -183 163 l-161 162 0 914 0 914 -69 69 c-62 62 -69 72 -61 93 23 59
-34 122 -100 111 -37 -6 -40 -4 -148 104 -70 69 -109 116 -106 124 5 14 -28
56 -43 56 -5 0 -16 -5 -25 -11z"/>
<path d="M6102 5978 c-18 -18 -15 -45 9 -77 19 -26 20 -36 13 -122 -5 -64 -9
-87 -15 -72 -10 28 -39 43 -83 43 -48 0 -80 -40 -73 -92 4 -29 0 -41 -19 -59
-24 -22 -24 -24 -24 -230 0 -171 -3 -210 -15 -223 -32 -31 -12 -86 30 -86 45
0 63 59 25 82 -19 12 -20 24 -20 219 l0 207 25 16 c19 12 30 14 44 6 33 -17
61 -11 91 18 l28 28 6 -35 c3 -20 6 -121 6 -226 l0 -190 -75 -75 -75 -74 0
-246 0 -245 93 -93 92 -92 640 2 640 2 -633 6 -632 6 -90 89 -90 90 0 236 0
237 72 73 73 74 2 195 c1 107 2 232 2 278 1 53 5 81 11 77 6 -4 10 -111 10
-289 l0 -283 -66 -69 -66 -69 1 -220 1 -220 80 -77 79 -77 588 6 c323 3 590 7
592 9 2 2 -261 4 -585 4 l-589 0 -78 78 -77 77 0 203 0 203 70 72 70 72 0 281
c0 268 1 282 20 299 29 26 26 73 -5 87 -19 8 -28 8 -40 -2 -13 -11 -15 -6 -15
39 0 28 4 51 8 51 5 0 14 11 20 24 20 45 -41 89 -76 54z"/>
<path d="M5212 5968 c-29 -29 -4 -83 37 -76 15 2 63 -40 181 -156 l160 -160 0
-591 0 -591 348 -344 347 -345 155 5 155 5 -150 3 -150 2 -342 343 -343 342 0
595 0 595 -160 159 c-107 106 -160 167 -160 181 0 27 -18 45 -45 45 -12 0 -26
-5 -33 -12z"/>
<path d="M6623 5815 c-17 -13 -17 -15 0 -43 15 -27 17 -69 17 -461 l0 -431
258 1 c141 0 277 4 302 8 28 5 -69 9 -252 10 l-298 1 6 433 c4 237 11 437 15
443 11 14 2 41 -16 48 -7 2 -21 -1 -32 -9z"/>
<path d="M713 5600 c0 -25 2 -35 4 -22 2 12 2 32 0 45 -2 12 -4 2 -4 -23z"/>
<path d="M1340 5500 c-13 -8 -13 -13 3 -39 15 -26 17 -64 17 -366 0 -303 -2
-340 -17 -367 -17 -28 -17 -30 0 -43 11 -8 25 -11 33 -8 16 6 19 39 4 48 -14
9 -14 710 1 736 7 15 7 24 -2 35 -13 16 -19 17 -39 4z"/>
<path d="M1901 5427 c-16 -16 -13 -37 7 -44 9 -4 36 -23 60 -42 l42 -35 0 -74
0 -73 64 -62 c35 -34 66 -71 68 -82 2 -14 11 -20 28 -20 37 0 39 32 3 46 -15
5 -56 38 -90 72 l-63 61 0 70 c0 66 -1 70 -40 112 -22 24 -40 50 -40 58 0 19
-25 27 -39 13z"/>
<path d="M2658 5184 l4 -257 -189 -189 c-103 -104 -198 -194 -211 -199 -31
-12 -25 -44 7 -44 18 0 26 7 32 26 4 16 83 102 192 209 l186 182 4 237 c2 130
6 247 8 261 3 19 -1 26 -16 28 -20 3 -20 -2 -17 -254z"/>
<path d="M642 5398 c-20 -20 -15 -59 8 -65 14 -4 20 -14 20 -33 0 -15 9 -35
21 -46 19 -17 23 -17 47 -3 37 20 41 61 8 87 -15 11 -26 28 -27 38 0 15 -2 14
-10 -5 l-10 -25 -19 32 c-22 36 -22 36 -38 20z"/>
<path d="M1800 5395 c-15 -18 -6 -45 15 -45 8 0 40 -24 70 -53 l55 -53 0 -71
0 -70 90 -89 c50 -49 93 -99 96 -111 7 -24 33 -38 47 -24 15 15 3 45 -18 49
-11 2 -62 45 -113 95 l-93 92 2 68 2 68 -50 52 c-27 29 -55 64 -61 80 -13 31
-24 34 -42 12z"/>
<path d="M2579 5373 c0 -5 0 -96 1 -203 1 -178 0 -197 -17 -211 -10 -9 -26
-19 -36 -22 -25 -9 -19 -52 7 -52 13 0 22 10 27 29 5 17 15 34 24 38 13 8 15
37 15 184 0 115 4 181 12 193 14 22 4 51 -17 51 -8 0 -15 -3 -16 -7z"/>
<path d="M890 5232 c0 -8 -7 -20 -15 -28 -25 -25 -19 -63 11 -70 37 -9 74 13
73 45 0 14 -3 20 -6 14 -3 -8 -15 -1 -34 19 -16 18 -29 27 -29 20z"/>
<path d="M1123 5083 c-14 -30 -7 -53 17 -53 26 0 33 28 12 55 l-18 22 -11 -24z"/>
<path d="M7737 5043 c18 -2 50 -2 70 0 21 2 7 4 -32 4 -38 0 -55 -2 -38 -4z"/>
<path d="M1824 5025 c-4 -9 -2 -27 5 -41 6 -14 11 -69 11 -122 l0 -98 -50 -49
c-41 -40 -50 -56 -50 -84 0 -19 -5 -50 -12 -68 -10 -29 -10 -36 2 -43 8 -6 19
-10 23 -10 15 0 20 33 9 51 -7 10 -12 36 -12 58 0 34 7 46 49 88 l50 48 4 110
c3 61 7 123 9 140 2 22 -2 30 -15 33 -9 2 -20 -4 -23 -13z"/>
<path d="M933 4990 c-30 -36 -29 -66 1 -85 20 -13 29 -14 46 -5 29 15 36 6 20
-24 -22 -43 10 -77 40 -41 9 11 9 19 -4 36 -9 14 -13 33 -9 50 7 38 -5 88 -17
69 -7 -12 -13 -11 -32 7 l-23 21 -22 -28z"/>
<path d="M7773 4953 c15 -2 39 -2 55 0 15 2 2 4 -28 4 -30 0 -43 -2 -27 -4z"/>
<path d="M2768 4926 c-20 -39 -369 -386 -387 -386 -9 0 -27 -7 -39 -16 -28
-19 -30 -74 -4 -97 58 -53 147 28 95 85 -16 18 -9 26 162 198 98 99 188 180
199 182 15 2 21 10 21 28 0 34 -30 38 -47 6z"/>
<path d="M1060 4836 c-22 -43 10 -77 39 -42 10 12 9 20 -4 40 -10 14 -18 26
-19 26 -2 0 -8 -11 -16 -24z"/>
<path d="M2924 4802 c-5 -4 -6 -244 -3 -592 4 -337 3 -592 -2 -602 -20 -38 2
-81 32 -62 5 3 9 -1 9 -8 0 -16 32 -82 50 -103 7 -8 25 -15 41 -15 24 0 29 -4
29 -24 0 -16 7 -27 20 -31 15 -5 20 -15 20 -45 0 -57 43 -100 102 -100 37 0
49 6 76 33 37 39 38 47 11 107 -20 43 -20 62 -19 529 0 295 4 490 10 501 14
26 12 37 -5 44 -35 13 -61 -24 -35 -50 7 -7 9 -177 8 -490 -3 -418 -5 -479
-18 -479 -13 0 -15 46 -18 340 -2 243 1 346 9 362 22 40 -12 73 -40 39 -9 -11
-9 -20 -2 -35 7 -13 11 -137 11 -359 0 -292 -2 -341 -15 -346 -23 -8 -28 33
-21 152 4 59 7 118 6 132 0 14 -3 178 -6 364 -4 253 -2 346 7 368 10 24 9 32
-2 44 -13 12 -18 12 -34 0 -17 -12 -18 -16 -4 -44 12 -25 16 -87 17 -319 3
-299 -2 -349 -28 -333 -13 8 -15 49 -16 267 0 187 3 265 12 284 15 30 4 53
-22 47 -14 -3 -18 -10 -15 -28 2 -14 6 -144 8 -289 4 -258 0 -291 -28 -291
-13 0 -12 853 1 866 15 15 1 44 -21 44 -25 0 -36 -27 -20 -52 9 -14 11 -153
10 -549 -1 -485 -3 -530 -18 -527 -14 3 -16 25 -15 203 1 110 3 211 5 225 3
20 -1 26 -19 28 -25 4 -41 -23 -23 -41 7 -7 11 -75 11 -212 l0 -200 -20 33
c-20 32 -20 46 -17 595 2 309 7 574 11 588 8 27 -10 45 -30 31z m176 -1228 c0
-38 -3 -45 -16 -40 -9 3 -18 6 -20 6 -2 0 -4 23 -4 50 0 48 1 50 20 40 16 -8
20 -21 20 -56z m54 40 c8 -22 6 -165 -3 -187 -6 -16 -9 -16 -18 -5 -13 17 -26
147 -17 182 7 29 29 35 38 10z"/>
<path d="M2802 4728 c-7 -7 -12 -17 -12 -23 0 -6 -54 -64 -120 -130 l-120
-120 0 -55 c0 -30 -5 -62 -10 -70 -16 -25 -30 7 -30 70 0 55 1 56 63 117 34
34 71 63 82 65 21 4 33 34 18 49 -12 12 -43 1 -43 -16 0 -7 -31 -46 -70 -86
l-70 -73 0 -75 c-1 -51 -5 -82 -15 -95 -19 -25 -19 -67 0 -92 8 -10 15 -41 15
-68 l0 -49 121 -123 c108 -109 121 -126 116 -150 -6 -31 8 -74 26 -86 42 -27
117 8 117 54 0 12 7 29 16 39 21 23 10 59 -18 59 -13 0 -63 42 -132 110 l-112
110 -1 168 -1 168 40 42 c36 39 68 54 68 34 0 -5 -18 -26 -41 -47 l-41 -38 3
-158 4 -158 43 -43 c23 -24 42 -49 42 -56 0 -21 36 -33 50 -17 16 19 6 45 -18
45 -10 0 -37 19 -60 43 l-42 43 0 150 0 150 68 66 c37 37 79 72 95 77 31 12
37 45 10 55 -18 7 -43 -16 -43 -40 0 -7 -10 -20 -21 -28 -20 -14 -23 -13 -39
7 -15 18 -20 19 -34 8 -9 -7 -16 -19 -16 -25 0 -7 -20 -32 -45 -56 -43 -42
-45 -47 -45 -102 0 -43 -4 -58 -14 -58 -7 0 -16 14 -20 31 -14 74 -12 78 117
207 67 67 130 122 139 122 21 0 28 20 16 43 -10 20 -20 21 -36 5z m-252 -620
c0 -24 17 -48 90 -121 50 -51 90 -98 90 -105 0 -20 -17 -7 -122 97 -98 97
-110 118 -92 165 10 26 34 -1 34 -36z m50 19 c0 -27 13 -45 85 -117 47 -47 85
-88 85 -92 0 -24 -35 2 -118 85 -87 87 -92 95 -86 125 9 43 34 42 34 -1z m230
-269 c0 -4 -9 -8 -20 -8 -15 0 -20 7 -20 27 0 25 0 26 20 8 11 -10 20 -22 20
-27z"/>
<path d="M5419 4651 c-19 -19 -29 -40 -29 -59 0 -32 34 -82 55 -82 12 0 15
-33 17 -177 l3 -178 110 -3 110 -3 163 -162 162 -162 0 -80 c-1 -54 -5 -86
-15 -99 -26 -34 18 -64 45 -31 9 11 8 19 -4 37 -12 16 -16 46 -16 105 l0 82
-157 160 -158 160 -110 3 -110 3 -3 140 c-3 154 2 205 22 205 25 0 56 45 56
82 0 28 -7 42 -31 62 -40 34 -74 33 -110 -3z"/>
<path d="M8031 4633 c-18 -12 -20 -17 -9 -30 10 -12 8 -18 -11 -33 -18 -13
-20 -19 -10 -22 11 -5 9 -10 -7 -28 -22 -22 -22 -22 -2 -42 11 -11 17 -26 14
-34 -3 -7 3 -18 12 -23 15 -9 15 -13 4 -31 -16 -27 1 -52 32 -48 16 2 21 10
21 33 1 17 11 47 23 67 27 44 27 58 2 108 -11 22 -20 50 -20 64 0 30 -21 39
-49 19z"/>
<path d="M6454 4300 c-52 -21 -72 -102 -34 -140 46 -46 111 -33 140 27 8 17
24 34 35 37 11 3 116 6 233 6 210 0 252 -6 252 -34 0 -25 45 -56 82 -56 82 0
115 99 51 150 -39 31 -76 26 -116 -15 l-34 -35 -241 0 -241 0 -31 30 c-17 17
-35 30 -40 30 -4 0 -14 2 -22 4 -7 3 -23 1 -34 -4z"/>
<path d="M7924 4192 c-17 -11 -36 -33 -43 -50 -7 -16 -22 -34 -34 -40 -17 -8
-18 -11 -5 -11 10 -1 22 -10 28 -20 13 -26 13 -31 -5 -31 -8 0 -15 -4 -15 -10
0 -5 8 -10 18 -10 9 0 24 -5 32 -10 13 -8 13 -13 2 -31 -12 -18 -11 -23 5 -35
26 -20 40 -17 59 11 9 14 23 25 31 25 27 0 73 31 88 60 39 75 -3 158 -85 167
-33 3 -53 -1 -76 -15z"/>
<path d="M7488 4023 c12 -2 30 -2 40 0 9 3 -1 5 -23 4 -22 0 -30 -2 -17 -4z"/>
<path d="M7437 3975 c-65 -14 -84 -25 -44 -25 15 0 27 -4 27 -8 0 -15 -25 -40
-45 -45 -19 -5 -19 -5 3 -12 12 -4 22 -14 22 -22 0 -56 73 -110 133 -99 41 8
87 55 87 91 0 15 8 25 23 30 l22 7 -24 7 c-13 3 -28 16 -32 29 -7 18 -5 22 13
22 36 0 10 14 -50 27 -67 14 -61 14 -135 -2z"/>
<path d="M5436 3954 c-32 -32 -9 -78 39 -79 13 0 46 -22 79 -52 44 -41 56 -59
56 -82 0 -20 7 -34 19 -41 28 -15 37 -13 67 15 23 22 36 25 96 25 56 0 71 -4
85 -20 19 -22 62 -27 81 -8 19 19 14 55 -10 72 -29 21 -30 20 -62 -9 -23 -22
-36 -25 -95 -25 -54 0 -74 4 -95 21 -17 13 -35 19 -48 15 -29 -7 -142 102
-132 128 8 20 -22 56 -47 56 -10 0 -25 -7 -33 -16z"/>
<path d="M4277 3922 c-23 -25 -21 -48 3 -69 19 -17 20 -30 20 -298 l0 -281
-29 -22 c-25 -18 -30 -19 -35 -6 -3 9 -6 109 -6 223 0 195 1 209 20 226 49 44
-3 111 -59 76 -19 -12 -17 -62 3 -76 13 -10 16 -44 17 -255 1 -163 -3 -246
-10 -253 -22 -22 -11 -47 37 -77 51 -32 102 -39 122 -15 7 8 16 12 21 9 5 -3
9 -84 9 -180 0 -165 -1 -175 -21 -192 -81 -66 -95 -121 -51 -190 29 -44 112
-68 139 -41 15 15 44 -3 102 -63 36 -37 41 -47 36 -75 -5 -26 -1 -37 20 -55
l25 -22 0 -180 c-1 -119 -6 -203 -15 -246 -19 -84 -19 -249 0 -325 8 -33 15
-87 16 -120 l2 -60 7 61 c5 33 16 87 26 120 25 82 24 290 -1 354 -13 34 -19
85 -22 214 -5 159 -4 170 16 197 38 51 20 99 -37 99 -11 0 -44 26 -76 61 -54
58 -66 79 -46 79 17 0 29 68 19 104 -11 41 -61 86 -94 86 -17 0 -24 7 -28 28
-3 15 -3 218 0 452 6 400 7 427 26 451 15 21 17 31 8 47 -25 46 -91 34 -91
-16 0 -15 9 -35 20 -45 19 -16 20 -29 20 -205 0 -104 -3 -191 -6 -194 -3 -3
-18 1 -35 9 l-29 14 0 280 c0 271 1 281 21 309 21 28 21 30 5 54 -19 30 -46
33 -69 8z"/>
<path d="M7878 3906 c-17 -12 -17 -14 2 -31 25 -22 52 -13 48 17 -4 27 -26 33
-50 14z"/>
<path d="M7780 3725 c-10 -12 -10 -18 0 -30 25 -30 67 -7 49 27 -12 22 -32 23
-49 3z"/>
<path d="M6608 3713 c6 -2 18 -2 25 0 6 3 1 5 -13 5 -14 0 -19 -2 -12 -5z"/>
<path d="M7759 3501 c-21 -9 -34 -22 -31 -29 2 -7 -4 -22 -14 -33 -9 -10 -12
-19 -6 -19 9 0 19 -18 27 -50 1 -3 5 -13 9 -23 5 -10 3 -23 -4 -32 -10 -12
-10 -18 0 -30 7 -8 18 -15 26 -15 15 0 37 34 27 43 -3 3 9 25 26 49 34 46 38
75 16 117 -19 37 -33 41 -76 22z"/>
<path d="M6013 3233 c-19 -7 -16 -50 3 -57 9 -4 24 0 34 9 11 10 36 15 73 15
46 0 59 -4 71 -22 11 -15 12 -26 6 -39 -32 -58 9 -139 69 -139 83 0 124 67 86
140 -17 33 -38 42 -92 39 -24 -2 -49 4 -63 14 -16 11 -44 17 -81 17 -38 0 -61
5 -69 15 -13 16 -17 17 -37 8z"/>
<path d="M6568 3219 c-12 -7 -18 -22 -18 -47 0 -34 -9 -47 -103 -140 l-104
-104 -201 5 c-197 4 -202 5 -221 28 -16 20 -23 22 -46 14 -39 -14 -49 -47 -24
-78 18 -23 19 -43 19 -270 0 -135 -3 -252 -6 -261 -3 -9 -15 -16 -25 -16 -10
0 -28 -9 -38 -19 -17 -17 -20 -17 -25 -4 -3 8 -6 186 -6 394 l0 380 28 35 c22
27 34 34 63 34 31 0 44 -9 107 -74 41 -42 72 -83 72 -94 0 -26 29 -37 48 -18
18 18 9 46 -16 46 -10 0 -52 34 -93 75 -67 68 -78 75 -114 75 -23 0 -53 9 -70
20 -37 25 -40 25 -65 0 -26 -26 -25 -45 2 -72 l23 -23 0 -425 c0 -479 8 -429
-85 -526 -68 -71 -58 -70 14 1 30 30 59 55 64 55 5 0 14 -12 21 -26 9 -22 8
-30 -10 -55 -11 -16 -25 -29 -31 -29 -6 0 -9 -3 -5 -6 3 -4 20 6 38 20 21 18
37 25 48 20 9 -4 39 -9 67 -12 46 -3 54 -1 81 27 32 32 46 73 36 112 -10 38
-42 78 -69 85 -14 4 -30 18 -35 31 -5 13 -9 127 -9 253 0 196 2 231 16 242 8
7 23 21 32 31 15 15 39 17 218 17 l202 0 107 105 c86 85 112 105 135 105 50 0
75 65 36 92 -15 11 -38 9 -58 -3z"/>
<path d="M7650 3189 c-70 -15 -77 -19 -61 -28 11 -7 11 -13 1 -32 -7 -13 -19
-28 -26 -32 -11 -6 -9 -12 7 -28 11 -11 19 -30 19 -42 -5 -60 16 -72 91 -50
65 19 78 28 95 70 12 27 11 40 -4 90 -16 53 -20 58 -47 60 -17 1 -50 -3 -75
-8z"/>
<path d="M6797 3072 c-48 -48 -87 -91 -87 -94 0 -4 41 34 91 83 50 50 89 92
87 94 -2 2 -43 -35 -91 -83z"/>
<path d="M6923 3083 c15 -2 37 -2 50 0 12 2 0 4 -28 4 -27 0 -38 -2 -22 -4z"/>
<path d="M6870 3060 c-6 -11 -8 -20 -6 -20 3 0 10 9 16 20 6 11 8 20 6 20 -3
0 -10 -9 -16 -20z"/>
<path d="M4911 3026 c-10 -12 -9 -19 2 -38 13 -19 15 -100 17 -508 0 -266 3
-486 5 -489 3 -2 5 216 5 486 0 431 2 492 15 503 22 18 15 54 -11 58 -11 2
-26 -4 -33 -12z"/>
<path d="M6725 2918 c-66 -66 -137 -131 -157 -144 -21 -14 -38 -30 -38 -37 0
-7 15 -27 33 -44 23 -23 45 -33 82 -38 46 -6 51 -9 67 -46 18 -44 55 -63 99
-54 52 12 74 62 55 123 -6 18 -2 30 15 48 27 29 21 32 -11 4 -13 -11 -29 -20
-36 -20 -29 0 -23 23 15 65 51 55 54 69 4 19 -35 -36 -119 -94 -135 -94 -15 0
-8 19 15 42 51 52 68 80 21 36 -53 -51 -71 -58 -81 -32 -4 10 14 36 53 77 l59
61 -62 -57 c-42 -39 -70 -57 -87 -57 -14 0 -26 4 -26 8 0 4 55 63 121 130 67
67 120 124 118 127 -3 2 -58 -50 -124 -117z"/>
<path d="M6913 3003 c9 -2 23 -2 30 0 6 3 -1 5 -18 5 -16 0 -22 -2 -12 -5z"/>
<path d="M7053 3003 c32 -2 81 -2 110 0 29 2 3 3 -58 3 -60 0 -84 -1 -52 -3z"/>
<path d="M6835 2940 l-49 -55 54 52 c30 29 52 54 50 56 -3 1 -27 -22 -55 -53z"/>
<path d="M6615 2890 l-80 -80 -199 0 -200 0 -33 32 c-29 28 -35 30 -65 22 -63
-18 -71 -99 -13 -126 32 -14 73 -2 89 27 6 11 16 23 21 27 6 4 98 8 205 8
l196 0 83 80 c46 45 82 83 79 85 -2 2 -40 -31 -83 -75z"/>
<path d="M7095 2963 c-11 -3 -29 -12 -40 -19 -11 -8 -40 -14 -65 -15 l-45 -1
33 -9 c30 -9 33 -13 27 -37 -8 -33 -3 -28 -45 -40 l-35 -10 36 -1 c28 -1 38
-6 48 -27 15 -34 7 -44 -37 -45 -42 -1 -38 -3 69 -19 61 -10 91 -10 149 1 41
7 67 15 59 17 -40 11 -40 11 -24 42 8 16 23 30 33 30 15 0 14 3 -4 18 -34 27
-39 57 -12 70 23 10 22 11 -5 11 -15 1 -40 7 -55 15 -37 19 -63 24 -87 19z"/>
<path d="M7540 2935 c-10 -12 -10 -18 0 -30 20 -25 55 -15 55 15 0 30 -35 40
-55 15z"/>
<path d="M4770 2893 c-17 -21 -20 -36 -16 -62 3 -19 11 -38 18 -42 57 -33 53
-4 58 -421 l5 -383 3 379 2 380 35 32 c27 24 35 40 35 66 0 74 -95 108 -140
51z"/>
<path d="M6879 2903 c-13 -16 -12 -17 4 -4 16 13 21 21 13 21 -2 0 -10 -8 -17
-17z"/>
<path d="M7437 2869 l-34 -31 30 -34 c20 -22 39 -34 56 -34 58 1 86 58 51 103
-28 36 -61 34 -103 -4z"/>
<path d="M6843 2868 c-15 -20 -25 -38 -20 -38 3 0 12 11 21 25 17 26 16 35 -1
13z"/>
<path d="M7348 2766 c-17 -12 -17 -14 0 -30 25 -22 49 -20 57 4 12 38 -21 53
-57 26z"/>
<path d="M5580 2065 c-13 -14 -34 -25 -47 -25 -64 0 -82 -49 -38 -102 17 -20
25 -24 25 -14 0 9 7 16 15 16 20 0 38 37 31 65 -4 17 2 33 20 54 31 37 27 41
-6 6z"/>
<path d="M5119 1840 c-5 -179 -10 -225 -27 -275 -19 -58 -20 -59 -23 -25 -1
19 -6 -23 -10 -95 -8 -139 1 -465 11 -405 l7 35 12 -30 c19 -45 31 -119 33
-199 1 -53 3 -40 8 51 4 69 12 128 18 136 19 22 42 201 42 322 0 129 -12 214
-37 258 -14 27 -18 67 -23 237 l-5 205 -6 -215z"/>
<path d="M5659 2023 c-13 -16 -12 -17 4 -4 16 13 21 21 13 21 -2 0 -10 -8 -17
-17z"/>
<path d="M5621 1814 c0 -11 3 -14 6 -6 3 7 2 16 -1 19 -3 4 -6 -2 -5 -13z"/>
<path d="M5606 1605 c-18 -170 -18 -186 -2 -290 9 -61 17 -142 17 -180 l2 -70
7 85 c4 47 16 103 26 125 27 59 27 322 0 380 -10 22 -21 60 -25 85 -5 37 -10
11 -25 -135z"/>
<path d="M5422 1230 c0 -19 2 -27 5 -17 2 9 2 25 0 35 -3 9 -5 1 -5 -18z"/>
<path d="M5512 1080 c0 -14 2 -19 5 -12 2 6 2 18 0 25 -3 6 -5 1 -5 -13z"/>
<path d="M5424 830 c0 -129 2 -182 3 -117 2 64 2 170 0 235 -1 64 -3 11 -3
-118z"/>
<path d="M5513 1005 c0 -22 2 -30 4 -17 2 12 2 30 0 40 -3 9 -5 -1 -4 -23z"/>
<path d="M4747 983 c-47 -20 -57 -51 -31 -98 14 -27 20 -31 27 -20 4 8 15 15
23 15 24 0 40 46 24 74 -7 13 -9 29 -6 35 4 6 6 11 4 10 -2 -1 -20 -8 -41 -16z"/>
<path d="M5514 765 c0 -93 2 -133 3 -88 2 45 2 122 0 170 -1 48 -3 12 -3 -82z"/>
<path d="M5303 705 c0 -22 2 -30 4 -17 2 12 2 30 0 40 -3 9 -5 -1 -4 -23z"/>
<path d="M5623 665 c0 -38 2 -53 4 -32 2 20 2 52 0 70 -2 17 -4 1 -4 -38z"/>
</g>
</svg>
