<?xml version="1.0" standalone="no"?>
<!DOCTYPE svg PUBLIC "-//W3C//DTD SVG 20010904//EN"
 "http://www.w3.org/TR/2001/REC-SVG-20010904/DTD/svg10.dtd">
<svg version="1.0" xmlns="http://www.w3.org/2000/svg"
 width="450.000000pt" height="450.000000pt" viewBox="0 0 450.000000 450.000000"
 preserveAspectRatio="xMidYMid meet">

<g transform="translate(0.000000,450.000000) scale(0.100000,-0.100000)"
fill="#000000" stroke="none">
<path d="M2290 4001 c-44 -24 -79 -85 -87 -153 -4 -29 -8 -48 -10 -42 -3 8
-19 7 -55 -2 -45 -12 -54 -12 -68 1 -14 13 -19 13 -27 3 -14 -17 -39 -111 -47
-173 -4 -27 -14 -84 -22 -125 -34 -166 -83 -210 -187 -167 -43 18 -47 13 -13
-14 43 -34 91 -227 120 -479 17 -149 33 -210 53 -210 7 0 14 -10 14 -22 1 -19
3 -17 9 7 6 25 8 26 9 7 3 -68 -67 -299 -106 -347 -10 -13 -14 -14 -10 -4 4
12 -4 11 -40 -8 -25 -12 -61 -26 -80 -29 l-35 -7 59 -28 c32 -16 83 -51 113
-78 30 -27 58 -47 62 -45 13 8 88 -120 102 -176 l6 -25 -13 26 c-10 22 -16 25
-34 18 -13 -5 -21 -14 -18 -21 5 -13 11 -47 22 -108 3 -19 12 -46 18 -60 7
-14 16 -48 20 -75 4 -28 11 -55 16 -60 21 -27 -16 -147 -78 -255 -2 -3 16 -4
39 -2 70 6 143 -58 168 -146 8 -31 6 -42 -18 -85 -29 -54 -86 -108 -147 -139
-53 -27 -52 -24 -24 -54 31 -33 80 -58 145 -73 l52 -12 7 -77 c13 -149 58
-202 172 -202 118 0 173 42 173 134 0 38 -37 90 -70 101 -42 13 -17 25 54 25
l74 0 7 -74 c13 -132 65 -186 180 -186 88 1 140 27 156 79 19 63 0 115 -51
141 -22 11 -40 25 -40 30 0 6 34 10 79 10 l79 0 6 -73 c13 -132 65 -187 178
-187 104 0 168 45 168 120 0 39 -30 86 -65 103 -61 29 -37 47 66 47 l56 0 7
-76 c11 -138 63 -194 179 -194 108 0 162 41 161 121 -1 53 -18 80 -66 105 -16
8 -28 23 -28 32 0 15 14 20 73 30 141 24 235 107 255 225 l7 42 119 5 118 5
29 33 c24 26 29 41 29 81 0 91 -48 121 -198 121 l-83 0 3 87 3 88 100 6 c140
8 175 31 175 121 0 39 -6 54 -29 80 -29 33 -30 33 -135 36 l-106 4 0 87 0 88
94 6 c138 8 176 35 176 128 0 83 -40 110 -177 117 l-93 5 0 88 0 89 85 0 c136
0 185 32 185 120 0 88 -49 120 -185 120 l-85 0 0 90 0 90 76 0 c139 0 194 33
194 116 0 94 -34 118 -182 129 l-98 7 0 83 0 82 98 7 c147 11 182 36 182 129
0 49 -21 84 -59 99 -14 6 -73 14 -131 17 l-104 6 -8 38 c-25 122 -125 207
-264 225 -32 4 -59 13 -61 19 -3 7 11 20 31 29 46 22 70 71 61 124 -11 66 -66
100 -163 100 -111 0 -165 -56 -178 -182 l-7 -68 -78 0 c-44 0 -79 2 -79 5 0 2
16 12 36 21 44 21 69 72 60 122 -10 67 -67 102 -163 102 -111 0 -166 -56 -178
-182 l-7 -68 -81 0 c-85 0 -87 2 -35 29 46 25 67 83 49 141 -10 34 -20 45 -54
61 -26 11 -65 19 -102 19 -113 0 -167 -54 -179 -181 l-7 -69 -54 0 c-61 0 -74
11 -47 37 66 63 52 165 -27 196 -55 23 -146 21 -191 -2z m-22 -895 c15 -8 37
-25 50 -38 l22 -24 -49 -24 c-59 -27 -125 -90 -152 -143 -19 -37 -20 -37 -48
-22 -64 32 -68 148 -8 214 45 48 130 65 185 37z m1363 -9 c50 -33 83 -105 74
-163 -10 -68 -88 -148 -122 -125 -6 3 -22 31 -37 61 -31 63 -66 102 -116 132
-19 12 -37 23 -39 24 -9 7 42 63 71 77 49 25 128 22 169 -6z m-909 -329 c53
-22 116 -85 146 -145 11 -21 26 -69 35 -108 27 -123 80 -531 73 -559 -12 -49
-52 -76 -110 -76 -82 1 -108 31 -126 146 -5 38 -12 84 -15 102 l-6 32 -123 0
-124 0 -12 -87 c-15 -116 -26 -149 -57 -173 -29 -23 -88 -26 -128 -8 -33 15
-55 56 -55 101 0 54 68 515 84 571 35 119 131 209 246 230 43 7 122 -4 172
-26z m584 -46 c42 -33 48 -60 49 -227 1 -88 -1 -249 -4 -357 -6 -197 -6 -198
-32 -224 -59 -59 -167 -34 -188 43 -14 50 -14 655 -1 705 15 52 52 78 109 78
28 0 54 -7 67 -18z m-1319 -39 c-3 -10 -5 -2 -5 17 0 19 2 27 5 18 2 -10 2
-26 0 -35z m-82 -543 c21 -22 37 -40 34 -40 -3 0 -23 18 -44 40 -21 22 -37 40
-34 40 3 0 23 -18 44 -40z m152 -282 c-3 -8 -6 -5 -6 6 -1 11 2 17 5 13 3 -3
4 -12 1 -19z m20 -80 c-3 -8 -6 -5 -6 6 -1 11 2 17 5 13 3 -3 4 -12 1 -19z
m1549 -4 c69 -33 100 -129 66 -206 -46 -106 -175 -131 -263 -51 -21 19 -39 39
-39 44 0 5 13 15 30 24 47 24 98 81 130 145 17 33 33 60 36 60 3 0 21 -7 40
-16z m-1415 -149 c19 -16 54 -39 79 -49 25 -11 47 -21 49 -23 3 -2 -6 -15 -20
-29 -51 -56 -149 -73 -185 -31 -47 54 -60 82 -53 112 4 17 7 47 8 67 2 57 28
65 61 19 15 -20 42 -49 61 -66z"/>
<path d="M2551 2544 c-21 -27 -37 -75 -43 -129 l-3 -30 65 1 c130 3 118 -4
108 60 -5 31 -13 65 -18 75 -30 55 -76 65 -109 23z"/>
<path d="M1940 2077 c0 -5 9 -20 20 -34 11 -14 17 -30 13 -36 -3 -6 -1 -7 5
-3 8 5 9 13 3 24 -16 28 -40 58 -41 49z"/>
<path d="M1985 1989 c-4 -6 -5 -12 -2 -15 2 -3 7 2 10 11 7 17 1 20 -8 4z"/>
<path d="M1997 1966 c-4 -10 -3 -15 3 -11 6 3 10 1 10 -6 0 -7 3 -10 6 -6 3 3
2 13 -4 22 -8 16 -9 16 -15 1z"/>
</g>
</svg>
